<svg width="128" height="128" viewBox="0 0 128 128" fill="none" xmlns="http://www.w3.org/2000/svg">
<g id="Layer_1">
<rect width="128" height="128" rx="64" fill="white" fill-opacity="0.1"/>
<g id="Group 17">
<path id="Vector" d="M69.8826 71.3788C68.8935 72.284 67.8093 73.0869 66.6455 73.7704C67.491 73.1494 68.3337 72.527 69.1763 71.9032C69.4122 71.727 69.6467 71.555 69.8826 71.3788Z" fill="white"/>
<path id="Vector_2" d="M56.8958 37.8938C46.258 37.8938 37.6338 46.518 37.6338 57.1558C37.6338 67.7936 46.258 76.4178 56.8958 76.4178C57.3164 76.4178 57.7356 76.405 58.1491 76.3751C60.5976 74.5534 63.0446 72.733 65.4958 70.9113C68.6406 68.5794 71.7881 66.2475 74.9357 63.9156C75.7258 61.8125 76.1564 59.5331 76.1564 57.1558C76.1564 46.518 67.5322 37.8938 56.8944 37.8938H56.8958ZM66.5985 50.8123L69.8996 48.5941C69.9706 48.5458 70.0673 48.5657 70.1142 48.6367L70.2719 48.8726C70.3202 48.9437 70.3003 49.0403 70.2293 49.0872L66.9282 51.3054C66.8572 51.3537 66.7605 51.3338 66.7136 51.2628L66.5559 51.0269C66.5076 50.9558 66.5275 50.8592 66.5985 50.8123ZM69.533 54.4459C69.5529 54.5297 69.5031 54.6135 69.4193 54.6334L68.335 54.902C68.2512 54.9219 68.1674 54.8722 68.1475 54.7883L68.0793 54.5127C68.0594 54.4288 68.1091 54.345 68.1929 54.3251L69.2772 54.0565C69.361 54.0366 69.4449 54.0863 69.4648 54.1702L69.533 54.4459ZM63.6044 47.9845L64.261 47.0807C64.3107 47.0111 64.4087 46.9954 64.477 47.0466L64.7072 47.2128C64.7768 47.2626 64.7924 47.3606 64.7413 47.4288L64.0847 48.3326C64.035 48.4022 63.937 48.4179 63.8688 48.3667L63.6386 48.2005C63.5689 48.1507 63.5533 48.0527 63.6044 47.9845ZM61.3194 43.4955C61.3479 43.4145 61.436 43.3718 61.517 43.4002L61.7841 43.494C61.8651 43.5224 61.9077 43.6105 61.8793 43.6915L60.8803 46.5407C60.8519 46.6217 60.7638 46.6643 60.6828 46.6359L60.4157 46.5421C60.3347 46.5137 60.292 46.4256 60.3205 46.3446L61.3194 43.4955ZM56.0219 44.5413L56.3046 44.5271C56.3899 44.5228 56.4624 44.5896 56.4666 44.6749L56.5363 46.1116C56.5405 46.1968 56.4737 46.2693 56.3885 46.2736L56.1057 46.2878C56.0204 46.292 55.948 46.2252 55.9437 46.14L55.8741 44.7033C55.8698 44.6181 55.9366 44.5456 56.0219 44.5413ZM54.3493 47.9219L55.2374 48.4634L57.3164 49.7323L59.3954 48.4634L60.2821 47.9219L60.4 47.8509L62.0086 48.6396V57.6503L59.3954 56.3685V52.0941L57.3164 53.228L55.2374 52.0941V56.3685L52.6242 57.6503V48.6396L54.2328 47.8509L54.3507 47.9219H54.3493ZM52.0842 43.3192L52.3513 43.224C52.4323 43.1956 52.5204 43.2368 52.5503 43.3178L53.7582 46.6984C53.7866 46.7794 53.7454 46.8675 53.6644 46.8974L53.3972 46.9926C53.3162 47.021 53.2281 46.9798 53.1983 46.8988L51.9904 43.5182C51.962 43.4372 52.0032 43.3491 52.0842 43.3192ZM47.8268 48.4094L48.0272 48.209C48.0883 48.1479 48.1863 48.1479 48.246 48.209L49.4326 49.3955C49.4937 49.4566 49.4937 49.5547 49.4326 49.6144L49.2322 49.8147C49.1711 49.8758 49.073 49.8758 49.0134 49.8147L47.8268 48.6282C47.7657 48.5671 47.7657 48.469 47.8268 48.4094ZM43.5879 49.6371L43.73 49.3913C43.7726 49.3174 43.8678 49.2918 43.9417 49.3344L47.7415 51.5285C47.8154 51.5711 47.841 51.6663 47.7984 51.7402L47.6563 51.9861C47.6136 52.06 47.5184 52.0855 47.4445 52.0429L43.6447 49.8489C43.5708 49.8062 43.5453 49.711 43.5879 49.6371ZM46.3887 56.5518V56.836C46.3887 56.9213 46.3191 56.9909 46.2338 56.9909H44.4377C44.3524 56.9909 44.2828 56.9213 44.2828 56.836V56.5518C44.2828 56.4666 44.3524 56.3969 44.4377 56.3969H46.2338C46.3191 56.3969 46.3887 56.4666 46.3887 56.5518ZM42.0887 60.4781C42.0049 60.4938 41.9239 60.4383 41.9068 60.3545L41.8542 60.076C41.8386 59.9921 41.894 59.9111 41.9779 59.8941L46.2978 59.0756C46.3816 59.0599 46.4626 59.1154 46.4797 59.1992L46.5322 59.4777C46.5479 59.5616 46.4925 59.6426 46.4086 59.6596L42.0887 60.4781ZM47.949 63.2235L46.1528 64.3703C46.0804 64.4158 45.9852 64.3959 45.9383 64.3234L45.7862 64.0847C45.7407 64.0122 45.7606 63.917 45.8331 63.8701L47.6293 62.7233C47.7018 62.6779 47.797 62.6978 47.8439 62.7702L47.9959 63.009C48.0414 63.0814 48.0215 63.1766 47.949 63.2235ZM60.2878 70.0914C60.2878 70.3912 60.0448 70.6328 59.7464 70.6328H58.1491V70.6683C58.1491 70.9113 57.953 71.1074 57.71 71.1074H56.6883C56.4453 71.1074 56.2492 70.9113 56.2492 70.6683V70.6328H54.652C54.3521 70.6328 54.1106 70.3898 54.1106 70.0914V69.9862C54.1106 69.6864 54.3536 69.4448 54.652 69.4448H59.7464C60.0462 69.4448 60.2878 69.6878 60.2878 69.9862V70.0914ZM60.7624 68.3037C60.7624 68.4756 60.6231 68.6135 60.4526 68.6135H53.9457C53.7738 68.6135 53.636 68.4742 53.636 68.3037V67.7367C53.636 67.5648 53.7752 67.4269 53.9457 67.4269H60.4526C60.6246 67.4269 60.7624 67.5662 60.7624 67.7367V68.3037ZM60.9997 66.2844C60.9997 66.4564 60.8604 66.5942 60.6899 66.5942H53.707C53.5351 66.5942 53.3972 66.455 53.3972 66.2844V65.7174C53.3972 65.5455 53.5365 65.4077 53.707 65.4077H60.6899C60.8619 65.4077 60.9997 65.5469 60.9997 65.7174V66.2844ZM66.0657 61.487C65.4916 62.6594 64.6887 63.6996 63.7139 64.5494L63.1966 64.295L62.0086 63.7124L59.3954 62.4306L57.3164 61.4117L55.2374 62.4306L52.6242 63.7124L51.4362 64.295L50.919 64.5494C49.9441 63.6996 49.1398 62.6594 48.5672 61.487C48.3242 60.9925 48.1224 60.4739 47.9661 59.9367C47.7117 59.0699 47.5767 58.1519 47.5767 57.2041C47.5767 54.2327 48.9068 51.5711 51.0056 49.7863C51.1463 49.6655 51.2913 49.5504 51.4376 49.4382V60.0788L52.6256 59.4962L55.2389 58.2144L57.3178 57.1955L59.3968 58.2144L62.0101 59.4962L63.198 60.0788V49.4382C63.3458 49.5504 63.4908 49.6655 63.63 49.7863C65.7275 51.5726 67.059 54.2327 67.059 57.2041C67.059 58.1519 66.924 59.0699 66.6696 59.9367C66.5133 60.4739 66.3115 60.9925 66.0685 61.487H66.0657ZM68.4246 62.9109L68.2825 63.1567C68.2398 63.2306 68.1446 63.2562 68.0707 63.2136L67.1044 62.6551C67.0305 62.6125 67.005 62.5173 67.0476 62.4434L67.1897 62.1976C67.2323 62.1237 67.3275 62.0981 67.4014 62.1407L68.3677 62.6992C68.4416 62.7418 68.4672 62.837 68.4246 62.9109ZM71.9132 59.1509C71.9047 59.2361 71.8293 59.2987 71.7441 59.2901L68.3436 58.9519C68.2583 58.9434 68.1958 58.8681 68.2043 58.7828L68.2327 58.5001C68.2412 58.4148 68.3166 58.3523 68.4018 58.3608L71.8023 58.699C71.8876 58.7075 71.9501 58.7828 71.9416 58.8681L71.9132 59.1509Z" fill="white"/>
<path id="Vector_3" d="M69.1763 71.9032C68.3337 72.527 67.491 73.1508 66.6455 73.7704C67.8093 73.0869 68.895 72.284 69.8826 71.3788C69.6467 71.555 69.4122 71.727 69.1763 71.9032Z" fill="white"/>
<path id="Vector_4" d="M96.4216 93.2285C96.1857 93.2356 95.9512 93.2313 95.7182 93.2484C95.3629 93.2711 95.2208 93.1688 95.2208 92.7638C95.2279 80.6837 95.2237 68.6064 95.218 56.5248C95.218 55.8214 95.2876 55.1152 95.2109 54.4118C95.1242 53.6316 94.6197 52.9652 93.8637 52.8032C92.8321 52.5815 91.7706 52.5815 90.7389 52.8103C89.8437 53.0064 89.3762 53.795 89.3762 54.9233C89.3833 58.4588 89.3932 61.9986 89.4088 65.5384C89.4088 65.7999 89.3222 65.8666 89.0806 65.8595C88.6102 65.8467 88.1384 65.8496 87.6709 65.8595C86.2186 65.8965 85.4314 66.7093 85.4314 68.1545V92.6999C85.4314 92.7823 85.4214 92.8661 85.4314 92.9485C85.4541 93.1674 85.3618 93.237 85.1458 93.2299C84.745 93.2171 84.3429 93.2029 83.945 93.237C83.5869 93.264 83.4974 93.1247 83.4974 92.7894C83.5073 85.6715 83.5073 78.5521 83.5073 71.4371C83.5073 71.1315 83.5343 70.826 83.5045 70.5248C83.4078 69.5926 82.6448 68.8593 81.7538 68.8437C81.0077 68.8266 80.2574 68.8167 79.5142 68.8437C78.7682 68.8735 78.2012 69.2188 77.863 69.9052C77.6371 70.3599 77.657 70.8473 77.6541 71.3248C77.647 74.2436 77.6442 77.1595 77.6541 80.0755C77.6541 80.4208 77.5575 80.5401 77.2093 80.5202C76.712 80.4975 76.2146 80.5032 75.7173 80.5202C74.8419 80.5501 74.0788 81.1 73.8529 81.8574C73.7506 82.1885 73.7435 82.5381 73.7435 82.882C73.7463 86.1987 73.7406 89.5168 73.7534 92.8334C73.7534 93.1418 73.6639 93.2612 73.3555 93.2441C73.0102 93.2242 72.6621 93.2171 72.321 93.2413C71.8933 93.2711 71.8038 93.0892 71.8038 92.6814C71.8208 88.3558 71.8165 84.0302 71.8066 79.7046C71.8066 78.3773 71.0435 77.6341 69.7134 77.6214C69.1067 77.6142 68.4956 77.6143 67.8888 77.6285C66.735 77.6512 65.9449 78.4484 65.942 79.6051C65.9321 81.1114 65.9392 82.6163 65.9392 84.1225C65.9392 85.0775 65.9321 86.0296 65.9491 86.9845C65.9562 87.3326 65.8298 87.4392 65.4887 87.4122C65.0482 87.3753 64.6034 87.3753 64.1615 87.3895C62.7518 87.4293 62.0456 88.1725 62.0456 89.585C62.0484 90.6934 62.0456 91.7975 62.0555 92.9016C62.0584 93.1404 62.0228 93.2398 61.7443 93.2398C58.6067 93.2299 55.4691 93.2398 52.33 93.2427H51.5598C51.5527 93.1958 51.547 93.1532 51.5399 93.1063C51.7758 92.9471 52.0174 92.7979 52.2462 92.6288C55.9281 89.9658 59.6071 87.2985 63.2918 84.6384C64.1643 84.0046 64.2368 83.6394 63.6172 82.7612C62.6552 81.3942 61.6903 80.0314 60.7112 78.6743C60.5251 78.4186 60.535 78.2637 60.8008 78.0704C62.7518 76.6409 64.6986 75.2085 66.6454 73.7675C67.4909 73.1465 68.3336 72.5241 69.1763 71.9003C69.4122 71.7241 69.6466 71.5522 69.8825 71.376C71.8663 69.9066 73.8429 68.4245 75.8267 66.958C78.5266 64.9614 81.2337 62.9777 83.9308 60.9812C84.6342 60.4639 84.701 59.9296 84.1695 59.2503C83.3666 58.2116 82.5581 57.1799 81.7381 56.1554C81.5719 55.9493 81.542 55.8441 81.7879 55.675C84.9099 53.535 88.0276 51.3892 91.1425 49.2406C92.3361 48.4179 93.5312 47.5951 94.7178 46.7666C95.2777 46.3759 95.3942 45.8771 95.083 45.3342C94.8542 44.9364 94.4592 44.9037 94.0741 44.8994C93.2712 44.8866 92.4726 44.9023 91.6697 44.9023C90.6181 44.8994 89.5694 44.8795 88.5178 44.8952C87.8017 44.9051 87.3967 45.3158 87.4237 45.9595C87.4436 46.5137 87.8642 46.8448 88.5448 46.8448C89.2383 46.842 89.9275 46.8377 90.6181 46.8377C90.7105 46.8377 90.8341 46.8078 90.8697 46.9244C90.9023 47.0409 90.7901 47.0864 90.7133 47.1404C90.3027 47.4217 89.8877 47.6946 89.4799 47.9759C86.2755 50.1885 83.0682 52.3982 79.8638 54.6135C78.9487 55.2473 78.889 55.712 79.5725 56.5945C79.6151 56.6513 79.662 56.701 79.7018 56.7564C80.4351 57.6886 81.164 58.6308 81.9044 59.5559C82.0934 59.7918 82.0536 59.9339 81.822 60.0859C81.4866 60.3076 81.1612 60.5435 80.8401 60.7794C78.6076 62.4349 76.3723 64.0904 74.1399 65.7444C71.457 67.731 68.777 69.7219 66.0927 71.7085C64.1018 73.1878 62.1124 74.6642 60.1258 76.1435C59.6654 76.4845 59.2035 76.8298 58.7431 77.1723C58.0369 77.6995 57.953 78.1073 58.4475 78.8235C59.4366 80.2559 60.4384 81.6755 61.453 83.0895C61.615 83.3182 61.5951 83.4149 61.3763 83.5698C57.0436 86.7017 52.7151 89.8351 48.3895 92.9769C48.1408 93.156 47.8922 93.2427 47.5866 93.2427C42.5718 93.2398 37.5528 93.2398 32.5366 93.2356C32.1486 93.2356 31.7607 93.2057 31.3756 93.2285C30.5329 93.2754 30.0881 93.9688 30.4335 94.6452C30.739 95.2392 31.279 95.1753 31.8033 95.1753C39.6118 95.1753 47.4204 95.1682 55.2289 95.1682C64.7782 95.1682 74.3289 95.1682 83.8782 95.171C88.0773 95.171 92.2807 95.1781 96.4827 95.1781C97.216 95.1781 97.7062 94.7575 97.6835 94.1592C97.6607 93.6093 97.1136 93.2043 96.423 93.2242L96.4216 93.2285ZM65.6067 93.2356C65.196 93.2128 64.781 93.2256 64.3661 93.2356C64.1046 93.2427 64.0009 93.1432 64.0009 92.8704C64.0109 91.8089 64.0037 90.7474 63.9981 89.6887C63.9952 89.4571 64.0776 89.3675 64.3093 89.3732C64.737 89.3803 65.1647 89.3803 65.5925 89.3604C65.8738 89.3477 65.9477 89.477 65.9406 89.7313C65.9307 90.2685 65.9378 90.8056 65.9378 91.3428H65.9406C65.9406 91.8671 65.9335 92.3915 65.9434 92.9144C65.9506 93.1659 65.8639 93.2455 65.6052 93.2327L65.6067 93.2356ZM69.8456 92.8704C69.8456 93.1659 69.8086 93.2882 69.4648 93.2484C69.0441 93.1986 68.6121 93.2384 68.1844 93.2413C67.9784 93.2441 67.859 93.2086 67.859 92.9428C67.8817 90.2926 67.8888 87.6424 67.8959 84.9922C67.8988 83.3239 67.9087 81.6514 67.8959 79.9831C67.8931 79.652 67.9883 79.5426 68.3166 79.5682C68.7017 79.598 69.0924 79.6051 69.4775 79.571C69.8356 79.5383 69.8456 79.7231 69.8456 79.9888C69.8385 82.1445 69.8385 84.2973 69.8385 86.4502C69.8385 88.603 69.8356 90.7289 69.8456 92.869V92.8704ZM77.647 87.911C77.6868 89.5963 77.6044 91.2817 77.6769 92.9656C77.6868 93.1816 77.6001 93.2569 77.3813 93.2469C76.9834 93.2271 76.5784 93.2072 76.1805 93.2441C75.7798 93.281 75.6959 93.1148 75.6959 92.7467C75.7087 89.5992 75.7059 86.4473 75.7059 83.2969C75.7059 82.5111 75.703 82.504 76.4917 82.5168C76.8598 82.5267 77.3145 82.3576 77.5731 82.6063C77.8218 82.845 77.6356 83.2898 77.6399 83.6408C77.657 85.0633 77.647 86.4871 77.647 87.9096V87.911ZM81.2195 93.254C80.8486 93.2313 80.4734 93.2313 80.1011 93.2469C79.7302 93.264 79.5938 93.1276 79.5938 92.7396C79.6066 88.1256 79.6066 83.5115 79.6066 78.8974C79.6066 76.3439 79.6094 73.786 79.5967 71.2324C79.5938 70.8772 79.7089 70.772 80.0471 70.7948C80.445 70.8175 80.8472 70.8075 81.2479 70.7948C81.4795 70.7876 81.579 70.8871 81.579 71.106C81.5818 71.3973 81.5818 71.6857 81.5818 71.9785V82.0493H81.5847C81.5847 85.6544 81.5818 89.261 81.5875 92.8661C81.5875 93.1418 81.5207 93.2739 81.2166 93.254H81.2195ZM89.379 80.6467H89.3762C89.3762 84.7336 89.3762 88.8233 89.3833 92.913C89.3861 93.1617 89.3008 93.2242 89.0777 93.2242C88.623 93.2242 88.1683 93.2342 87.7107 93.2441C87.5189 93.2512 87.3995 93.2043 87.4095 92.9684C87.526 89.2397 87.4492 85.508 87.4592 81.7807C87.472 77.3727 87.462 72.9675 87.4592 68.5595C87.4592 68.0858 87.6993 67.8523 88.1796 67.8589C88.4155 67.8618 88.65 67.8987 88.8831 67.8788C89.3037 67.839 89.3904 68.038 89.3875 68.416C89.3776 72.4929 89.3804 76.5698 89.3804 80.6453L89.379 80.6467ZM92.4072 93.2413C91.7147 93.2365 91.3684 92.8926 91.3684 92.2096V73.9693C91.3684 67.6969 91.3713 61.4217 91.3613 55.1478C91.3585 54.7826 91.4409 54.6604 91.8118 54.6974C92.1528 54.7301 92.5024 54.6974 92.8463 54.6746C93.1646 54.6548 93.2911 54.7741 93.2811 55.1024C93.2683 55.7788 93.2882 56.4552 93.2882 57.133C93.2911 68.8792 93.2911 80.624 93.2911 92.3702C93.2911 93.2455 93.2882 93.2455 92.4058 93.2427L92.4072 93.2413Z" fill="white"/>
<path id="Vector_5" d="M32.754 57.1728C32.8066 50.9786 34.8458 45.5375 38.9525 40.8779C42.0489 37.3652 45.8672 34.9764 50.3406 33.6577C54.112 32.545 57.9516 32.3774 61.8125 33.1476C68.0295 34.3867 73.0244 37.584 76.82 42.6443C78.7554 45.2248 80.0614 48.1181 80.877 51.2372C80.9324 51.4461 80.8969 51.5868 80.7278 51.7005C80.293 51.9932 79.8539 52.2817 79.4205 52.5758C79.2258 52.708 79.1562 52.671 79.1036 52.428C78.0421 47.5127 75.5965 43.4159 71.8023 40.1177C68.5724 37.3097 64.8408 35.5505 60.6175 34.9253C55.0357 34.0996 49.8248 35.1697 45.053 38.2249C41.0954 40.7586 38.2335 44.2259 36.4089 48.5415C35.5335 50.6105 35.0021 52.7776 34.8159 55.0242C34.32 61.0025 35.8774 66.3811 39.6147 71.0761C42.893 75.1943 47.1305 77.8459 52.2732 79.0225C53.5536 79.3152 54.8538 79.49 56.1682 79.5227C56.4439 79.5298 56.6329 79.625 56.785 79.8567C57.0891 80.3171 57.4173 80.7618 57.7342 81.2152C57.7868 81.2905 57.882 81.3644 57.818 81.4695C57.7697 81.5505 57.6717 81.5264 57.5907 81.5278C53.3219 81.5818 49.2763 80.6666 45.5475 78.5763C39.2211 75.0308 35.1356 69.7318 33.3906 62.675C32.9458 60.8774 32.7114 59.0401 32.7554 57.17L32.754 57.1728Z" fill="white"/>
</g>
</g>
</svg>
