<svg width="128" height="128" viewBox="0 0 128 128" fill="none" xmlns="http://www.w3.org/2000/svg">
<g id="Layer_1">
<rect width="128" height="128" rx="64" fill="white" fill-opacity="0.1"/>
<g id="Group 12">
<path id="Vector" d="M30.3158 51.1298C32.7263 49.9616 34.9059 48.9013 37.088 47.8472C45.7563 43.6599 54.4295 39.4814 63.0878 35.2753C63.7716 34.9427 64.2924 34.954 64.9825 35.2878C75.5945 40.4401 86.224 45.5597 96.8473 50.6881C97.0744 50.7986 97.2889 50.9341 97.6842 51.1574C95.6677 51.7673 93.8345 52.3796 91.966 52.8627C91.1165 53.0823 90.8204 53.4312 90.8417 54.2844C90.8994 56.6221 90.8706 58.9611 90.8518 61.2988C90.848 61.807 90.9534 62.1584 91.429 62.4859C92.2471 63.0493 92.3977 63.9264 91.8506 64.7458C91.5632 65.1749 91.4792 65.589 91.4842 66.0772C91.5005 67.7197 91.4315 69.366 91.5068 71.0061C91.5532 72.0187 90.8994 71.8255 90.3022 71.8568C89.6459 71.8907 89.1766 71.8418 89.228 70.9734C89.3058 69.6822 89.2581 68.3835 89.2494 67.0873C89.2431 66.1851 89.3171 65.3092 88.77 64.4446C88.3572 63.7934 88.5693 62.9728 89.2908 62.5173C89.819 62.1835 89.8956 61.7844 89.8906 61.2499C89.8717 58.9435 89.8642 56.6359 89.8956 54.3296C89.9044 53.6696 89.7237 53.5077 89.0637 53.7223C87.6419 54.1865 86.2102 54.622 84.7659 55.0147C84.1511 55.1816 83.944 55.4765 83.9553 56.0863C83.9904 57.9397 83.9678 59.7943 83.9678 61.7932C70.6568 51.6255 57.4562 51.0156 44.2844 61.7317C43.9606 61.413 44.1037 61.0454 44.0999 60.7216C44.0824 59.2045 44.056 57.6862 44.1137 56.1717C44.1401 55.4652 43.864 55.1804 43.1914 54.9846C39.2237 53.8302 35.2698 52.6356 31.3109 51.4523C31.0649 51.3783 30.8215 51.2942 30.3158 51.1286V51.1298Z" fill="white"/>
<g id="Group">
<path id="Vector_2" d="M81.9589 62.1208C78.3023 59.1054 74.2493 56.8618 69.6504 55.6346C64.9373 54.3773 60.2606 54.5141 55.6504 56.0688C51.5271 57.4554 47.981 59.8483 44.711 62.6804C44.0472 63.2513 43.7322 63.8562 43.7398 64.7496C43.7774 69.1038 43.7398 73.4605 43.7586 77.8185C43.7736 80.963 45.2054 83.3033 47.9045 84.8755C49.0175 85.5243 50.1255 86.173 51.2385 86.8192L52.3766 87.4793C53.8674 88.3476 55.3656 89.2071 56.8639 90.0567C57.4724 90.4017 58.066 90.7757 58.6658 91.132C58.7988 91.2098 58.933 91.2876 59.0661 91.3654L59.0999 91.3843L60.9709 92.4709C62.6071 93.4221 64.6286 93.4246 66.2662 92.4759L75.0097 87.4153L75.1252 87.3488C76.6786 86.4516 78.2258 85.5469 79.7642 84.6271C82.2374 83.1514 83.5173 80.8777 83.5437 77.9628C83.5625 75.8007 83.5475 73.6387 83.5475 71.4766H83.5437C83.5437 69.4438 83.4283 67.401 83.5813 65.3795C83.6968 63.8737 83.0029 62.9803 81.9614 62.1195L81.9589 62.1208ZM72.9669 67.8854L75.8718 65.9329C76.001 65.8463 76.1754 65.8802 76.262 66.0094C76.3486 66.1387 76.3147 66.3131 76.1855 66.3997L73.2806 68.3522C73.1513 68.4387 72.9769 68.4049 72.8903 68.2756C72.8037 68.1464 72.8376 67.9719 72.9669 67.8854ZM75.3974 71.6134L74.632 71.8029C74.4814 71.8405 74.3283 71.7477 74.2907 71.5971C74.2531 71.4465 74.3459 71.2934 74.4965 71.2558L75.2619 71.0663C75.4125 71.0287 75.5656 71.1215 75.6032 71.2721C75.6409 71.4227 75.548 71.5758 75.3974 71.6134ZM70.0971 65.1725L70.5614 64.5338C70.653 64.4083 70.8287 64.3807 70.9542 64.471C71.0796 64.5614 71.1072 64.7383 71.0169 64.8638L70.5526 65.5025C70.461 65.6279 70.2853 65.6556 70.1599 65.5652C70.0344 65.4736 70.0068 65.2979 70.0971 65.1725ZM66.9513 63.6014L67.8083 61.1545C67.8598 61.0077 68.0204 60.9312 68.1672 60.9826C68.314 61.0341 68.3906 61.1947 68.3391 61.3415L67.4821 63.7884C67.4306 63.9352 67.27 64.0118 67.1232 63.9603C66.9764 63.9089 66.8998 63.7482 66.9513 63.6014ZM62.9673 62.0128C63.1229 62.0053 63.2546 62.1245 63.2621 62.2801L63.3148 63.3731C63.3224 63.5287 63.2032 63.6604 63.0476 63.6679C62.892 63.6755 62.7602 63.5563 62.7527 63.4007L62.7 62.3077C62.6925 62.1521 62.8117 62.0204 62.9673 62.0128ZM61.2482 65.2226L62.0889 65.7359L64.059 66.938L66.029 65.7359L66.8697 65.2226L66.9814 65.1549L68.506 65.9028V74.4405L66.0303 73.2259V69.1753L64.0602 70.2494L62.0901 69.1753V73.2259L59.6144 74.4405V65.9028L61.139 65.1549L61.2507 65.2226H61.2482ZM59.2292 60.817C59.376 60.7643 59.5366 60.8408 59.5893 60.9877L60.6434 63.9377C60.6961 64.0845 60.6195 64.2451 60.4727 64.2979C60.3259 64.3506 60.1653 64.274 60.1126 64.1272L59.0585 61.1771C59.0058 61.0303 59.0824 60.8697 59.2292 60.817ZM55.1636 65.5903C55.274 65.4799 55.4522 65.4799 55.5614 65.5903L56.4962 66.5251C56.6066 66.6356 56.6066 66.8137 56.4962 66.9229C56.3858 67.0333 56.2076 67.0333 56.0984 66.9229L55.1636 65.9881C55.0532 65.8777 55.0532 65.6995 55.1636 65.5903ZM51.1193 66.7322C51.1971 66.5979 51.369 66.5515 51.5033 66.6293L54.8712 68.573C55.0055 68.6508 55.0519 68.8227 54.9741 68.957C54.8963 69.0912 54.7244 69.1377 54.5901 69.0599L51.2222 67.1162C51.0879 67.0384 51.0415 66.8665 51.1193 66.7322ZM53.7067 73.5345C53.7067 73.6901 53.5813 73.8156 53.4257 73.8156H51.9927C51.8371 73.8156 51.7116 73.6901 51.7116 73.5345C51.7116 73.3789 51.8371 73.2535 51.9927 73.2535H53.4257C53.5813 73.2535 53.7067 73.3789 53.7067 73.5345ZM49.7654 77.0944C49.6123 77.1233 49.4655 77.0229 49.4366 76.8698C49.4077 76.7167 49.5081 76.5699 49.6612 76.5411L53.4897 75.8158C53.6427 75.7869 53.7896 75.8873 53.8184 76.0404C53.8473 76.1935 53.7469 76.3403 53.5938 76.3692L49.7654 77.0944ZM55.072 79.7935L53.5976 80.7346C53.4671 80.8187 53.2927 80.7798 53.2086 80.6493C53.1245 80.5188 53.1634 80.3444 53.2939 80.2603L54.7683 79.3192C54.8988 79.2352 55.0732 79.2741 55.1573 79.4046C55.2414 79.5351 55.2025 79.7095 55.072 79.7935ZM66.8773 86.2282C66.8773 86.5118 66.6476 86.7414 66.364 86.7414H64.8507V86.7753C64.8507 87.0062 64.665 87.1919 64.4341 87.1919H63.4667C63.2358 87.1919 63.0501 87.0062 63.0501 86.7753V86.7414H61.5368C61.2532 86.7414 61.0236 86.5118 61.0236 86.2282V86.1291C61.0236 85.8455 61.2532 85.6159 61.5368 85.6159H66.3628C66.6464 85.6159 66.876 85.8455 66.876 86.1291V86.2282H66.8773ZM66.7643 84.8279H61.1365C60.8253 84.8279 60.5731 84.5756 60.5731 84.2644C60.5731 83.9532 60.8253 83.701 61.1365 83.701H66.7643C67.0755 83.701 67.3277 83.9532 67.3277 84.2644C67.3277 84.5756 67.0755 84.8279 66.7643 84.8279ZM66.9889 82.9143H60.9106C60.5994 82.9143 60.3472 82.662 60.3472 82.3521C60.3472 82.0422 60.5994 81.7887 60.9106 81.7887H66.9889C67.3001 81.7887 67.5524 82.0409 67.5524 82.3521C67.5524 82.6633 67.3001 82.9143 66.9889 82.9143ZM72.9204 76.6063C72.7724 77.1145 72.5816 77.6064 72.3508 78.0757C71.8074 79.1862 71.0458 80.1725 70.1222 80.9781L69.6316 80.7372L68.506 80.185L66.0303 78.9704L64.0602 78.0042L62.0901 78.9704L59.6144 80.185L58.4888 80.7372L57.9982 80.9781C57.0747 80.1737 56.313 79.1875 55.7697 78.0757C55.5388 77.6077 55.348 77.1158 55.2 76.6063C54.959 75.7844 54.8311 74.9161 54.8311 74.0176C54.8311 71.2031 56.0921 68.6809 58.0798 66.9894C58.2128 66.8752 58.3495 66.7648 58.4901 66.6594V76.7418L59.6157 76.1897L62.0914 74.9751L64.0615 74.0089L66.0315 74.9751L68.5073 76.1897L69.6328 76.7418V66.6594C69.7721 66.7648 69.9101 66.874 70.0432 66.9894C72.0308 68.6809 73.2919 71.2031 73.2919 74.0176C73.2919 74.9161 73.1639 75.7844 72.923 76.6063H72.9204ZM74.5191 79.5413C74.4413 79.6756 74.2694 79.722 74.1351 79.6442L73.4525 79.2502C73.3182 79.1724 73.2718 79.0005 73.3496 78.8662C73.4274 78.732 73.5993 78.6855 73.7336 78.7633L74.4162 79.1573C74.5504 79.2351 74.5969 79.4071 74.5191 79.5413ZM77.5971 75.9802L74.6433 75.6865C74.489 75.6715 74.376 75.5334 74.3911 75.3791C74.4061 75.2248 74.5442 75.1118 74.6985 75.1269L77.6523 75.4205C77.8067 75.4356 77.9196 75.5736 77.9046 75.7279C77.8895 75.8823 77.7515 75.9952 77.5971 75.9802Z" fill="white"/>
<path id="Vector_3" d="M68.2525 67.4537C68.2525 67.4687 68.2488 67.4876 68.2488 67.5014L68.2601 67.4863C68.2563 67.475 68.2563 67.4637 68.2525 67.4524V67.4537Z" fill="#FBD700"/>
</g>
</g>
</g>
</svg>
