<svg width="128" height="128" viewBox="0 0 128 128" fill="none" xmlns="http://www.w3.org/2000/svg">
<g id="Layer_1">
<rect width="128" height="128" rx="64" fill="white" fill-opacity="0.1"/>
<g id="Group 15">
<path id="Vector" d="M63.9784 38.3889C50.6725 38.3889 39.885 49.1764 39.885 62.4823C39.885 75.7882 50.6725 86.5756 63.9784 86.5756C77.2843 86.5756 88.0717 75.7882 88.0717 62.4823C88.0717 49.1764 77.2843 38.3889 63.9784 38.3889ZM75.6541 54.8486L79.5796 52.2122C79.6734 52.1411 79.8027 52.171 79.8681 52.2648L80.033 52.5064C80.0984 52.6059 80.0742 52.7352 79.9747 52.8006L76.0492 55.437C75.9554 55.5024 75.826 55.4783 75.7607 55.3788L75.5958 55.1372C75.5304 55.0434 75.5546 54.914 75.6541 54.8486ZM78.9955 59.4564L77.7433 59.7662C77.6296 59.7946 77.5159 59.725 77.4875 59.6113L77.4179 59.3299C77.3894 59.2162 77.4591 59.1011 77.5728 59.0741L78.8249 58.7642C78.9386 58.7358 79.0523 58.8054 79.0807 58.9191L79.1504 59.2006C79.1788 59.3143 79.1092 59.428 78.9955 59.4564ZM72.0526 51.4419L72.8115 50.4001C72.8769 50.3063 73.0119 50.2821 73.1057 50.3532L73.3417 50.5237C73.4355 50.5948 73.4539 50.7241 73.3886 50.8179L72.6296 51.8654C72.5585 51.9592 72.4292 51.9777 72.3354 51.9123L72.0995 51.7417C72.0057 51.6707 71.9815 51.5357 72.0526 51.4419ZM68.0986 49.4706L69.2811 46.0979C69.3223 45.9856 69.4403 45.9273 69.5511 45.9686L69.8283 46.0624C69.9349 46.0979 69.9932 46.2215 69.9576 46.3324L68.7751 49.7051C68.7339 49.8174 68.6159 49.8756 68.5051 49.8344L68.228 49.7406C68.1214 49.6994 68.0631 49.5814 68.0986 49.4706ZM62.9536 47.3273L63.2436 47.3131C63.3601 47.3074 63.4596 47.3969 63.4653 47.5135L63.5463 49.1892C63.552 49.3057 63.4624 49.4052 63.3459 49.4109L63.056 49.4251C62.9394 49.4308 62.8399 49.3412 62.8342 49.2247L62.7532 47.549C62.7475 47.4325 62.8371 47.333 62.9536 47.3273ZM60.9184 51.3879L61.9829 52.0416L64.4843 53.5652L66.9801 52.0416L68.0446 51.3879L68.1853 51.3054L70.1154 52.2534V63.0764L66.9787 61.5343V56.4021L64.4829 57.7608L61.9815 56.4021V61.5343L58.8447 63.0764V52.2534L60.7748 51.3054L60.9155 51.3879H60.9184ZM58.2222 45.852L58.4951 45.7539C58.6045 45.7142 58.7268 45.7724 58.7652 45.8819L60.1992 49.8941C60.239 50.0035 60.1807 50.1258 60.0713 50.1641L59.7984 50.2622C59.689 50.302 59.5667 50.2437 59.5284 50.1343L58.0943 46.1221C58.0545 46.0126 58.1128 45.8904 58.2222 45.852ZM53.1028 51.9564L53.3075 51.7517C53.3899 51.6693 53.5235 51.6693 53.6059 51.7517L54.9959 53.1417C55.0784 53.2241 55.0784 53.3577 54.9959 53.4402L54.7913 53.6448C54.7089 53.7273 54.5753 53.7273 54.4928 53.6448L53.1028 52.2548C53.0204 52.1724 53.0204 52.0388 53.1028 51.9564ZM48.0047 53.4274L48.1497 53.1758C48.208 53.0749 48.3373 53.0394 48.4382 53.0991L52.9579 55.7085C53.0588 55.7668 53.0943 55.8961 53.0346 55.997L52.8896 56.2486C52.8314 56.3495 52.702 56.385 52.6011 56.3253L48.0815 53.7159C47.9806 53.6576 47.945 53.5283 48.0047 53.4274ZM51.3575 61.7802V62.0701C51.3575 62.1866 51.2623 62.2819 51.1457 62.2819H49.0394C48.9229 62.2819 48.8277 62.1866 48.8277 62.0701V61.7802C48.8277 61.6636 48.9229 61.5684 49.0394 61.5684H51.1457C51.2623 61.5684 51.3575 61.6636 51.3575 61.7802ZM46.2182 66.4661C46.1031 66.4874 45.9922 66.4121 45.9709 66.2969L45.9169 66.0113C45.8956 65.8961 45.9709 65.7853 46.086 65.764L51.2239 64.7904C51.339 64.7691 51.4499 64.8444 51.4712 64.9595L51.5252 65.2452C51.5465 65.3603 51.4712 65.4712 51.3561 65.4925L46.2182 66.4661ZM53.2108 69.7819L51.096 71.1321C50.9979 71.1946 50.8672 71.1662 50.8032 71.0681L50.6469 70.8237C50.5843 70.7256 50.6128 70.5949 50.7108 70.5309L52.8257 69.1807C52.9237 69.1182 53.0545 69.1466 53.1185 69.2447L53.2748 69.4891C53.3373 69.5872 53.3089 69.7179 53.2108 69.7819ZM68.0531 78.0167C68.0531 78.3763 67.7618 78.6677 67.4022 78.6677H65.4849V78.7103C65.4849 79.0031 65.249 79.2376 64.9576 79.2376H63.7311C63.4383 79.2376 63.2038 79.0016 63.2038 78.7103V78.6677H61.2865C60.9269 78.6677 60.6355 78.3763 60.6355 78.0167V77.8916C60.6355 77.5321 60.9269 77.2407 61.2865 77.2407H67.405C67.7646 77.2407 68.056 77.5321 68.056 77.8916V78.0167H68.0531ZM68.6245 75.818C68.6245 76.0511 68.4355 76.2415 68.2009 76.2415H60.4849C60.2518 76.2415 60.0613 76.0525 60.0613 75.818V75.2367C60.0613 75.0036 60.2504 74.8132 60.4849 74.8132H68.2009C68.434 74.8132 68.6245 75.0022 68.6245 75.2367V75.818ZM68.9102 73.3919C68.9102 73.625 68.7211 73.8154 68.4866 73.8154H60.2006C59.9675 73.8154 59.7771 73.6264 59.7771 73.3919V72.8106C59.7771 72.5775 59.9661 72.3871 60.2006 72.3871H68.4866C68.7197 72.3871 68.9102 72.5761 68.9102 72.8106V73.3919ZM74.996 67.677C74.3081 69.0897 73.3417 70.3376 72.172 71.3609L71.548 71.0553L70.1182 70.3547L66.9815 68.8126L64.4858 67.5889L61.9843 68.8126L58.8476 70.3547L57.4178 71.0553L56.7995 71.3609C55.6284 70.3376 54.6634 69.0897 53.9755 67.677C53.6813 67.0886 53.4397 66.4646 53.2521 65.818C52.9465 64.7762 52.7816 63.6761 52.7816 62.5348C52.7816 58.9689 54.382 55.7725 56.9004 53.6249C57.071 53.4842 57.2416 53.3421 57.4178 53.2071V65.9885L58.8476 65.2878L61.9843 63.7515L64.4858 62.5277L66.9815 63.7515L70.1182 65.2878L71.548 65.9885V53.2071C71.7243 53.3421 71.8948 53.4842 72.0654 53.6249C74.5839 55.7725 76.1842 58.9689 76.1842 62.5348C76.1842 63.6761 76.0193 64.7776 75.7138 65.818C75.5318 66.4646 75.2845 67.0886 74.996 67.677ZM77.8158 69.4124L77.6708 69.6639C77.6126 69.7648 77.4832 69.8004 77.3823 69.7407L76.2652 69.0954C76.1643 69.0371 76.1288 68.9078 76.1885 68.8069L76.3334 68.5553C76.3917 68.4544 76.521 68.4189 76.622 68.4786L77.7391 69.1238C77.84 69.1821 77.8755 69.3115 77.8158 69.4124ZM81.7897 65.0377L77.7561 64.6369C77.6396 64.6255 77.5543 64.5218 77.5671 64.4052L77.5955 64.1167C77.6069 64.0002 77.7106 63.9149 77.8272 63.9277L81.8607 64.3285C81.9773 64.3399 82.0626 64.4436 82.0498 64.5602L82.0213 64.8487C82.01 64.9652 81.9062 65.0505 81.7897 65.0377Z" fill="white"/>
<path id="Vector_2" d="M96.9688 63.3563C96.5979 75.2566 91.5666 84.5958 81.5893 91.2047C81.0193 91.5827 80.4054 91.894 79.8198 92.2507C79.3948 92.5108 79.22 92.3829 79.2172 91.911C79.2086 90.9204 79.1845 89.9298 79.1859 88.9392C79.1859 88.2925 78.9926 87.7126 78.4994 87.3075C78.0233 86.9167 78.2123 86.7291 78.6075 86.4789C81.0307 84.9497 83.164 83.0977 85.016 80.9005C88.5705 76.6821 90.6996 71.8399 91.3321 66.3794C92.2189 58.723 90.286 51.7972 85.512 45.7454C81.6234 40.8179 76.5736 37.5532 70.4508 36.122C61.737 34.0853 53.7438 35.7951 46.6389 41.2343C42.3865 44.489 39.4004 48.7244 37.621 53.8054C36.5067 56.9862 35.968 60.2523 36.0519 63.6065C36.1983 69.4351 37.9976 74.7151 41.447 79.4323C43.4823 82.2151 45.9638 84.5105 48.8518 86.3738C49.3151 86.6722 49.588 86.8826 48.9911 87.3516C48.4098 87.8092 48.3004 88.5128 48.2904 89.2163C48.2805 89.9525 48.2918 90.6887 48.2833 91.4249C48.2805 91.6694 48.4169 91.9849 48.1668 92.1356C47.8854 92.3061 47.6395 92.0361 47.4135 91.9025C45.9254 91.0213 44.4843 90.0691 43.144 88.9747C39.8609 86.2942 37.1633 83.1148 35.1124 79.4053C32.2344 74.202 30.8685 68.625 30.9979 62.6684C31.1229 56.9308 32.6082 51.5868 35.553 46.6707C40.553 38.3207 47.8015 32.9895 57.3453 31.0381C66.2638 29.2132 74.6492 30.852 82.236 35.8875C88.7894 40.2366 93.228 46.2599 95.5419 53.814C96.4941 56.9208 96.939 60.0974 96.9702 63.3549L96.9688 63.3563Z" fill="white"/>
<path id="Vector_3" d="M78.5634 89.6569C78.5108 88.0381 77.6751 87.2976 76.0392 87.2265C75.7337 87.2095 75.4267 87.2152 75.1268 87.2152H63.9983V87.2507C59.9619 87.2507 55.9241 87.2209 51.8877 87.2621C50.1281 87.2862 49.3749 88.1447 49.3692 89.8985C49.3692 91.4761 49.3749 93.0523 49.3635 94.6242C49.3464 96.8727 50.1338 97.6842 52.3595 97.6842C60.0571 97.6842 67.7547 97.6842 75.4466 97.6785C75.8758 97.6785 76.3121 97.6544 76.7357 97.5847C77.7249 97.4142 78.5066 96.5955 78.5307 95.5893C78.589 93.6123 78.6245 91.6353 78.5663 89.6569H78.5634ZM58.4312 94.9767C57.695 95.0009 56.9658 95.0236 56.2296 95.0179C55.8701 95.0122 55.7947 94.7351 55.7947 94.4238C55.8004 93.7175 55.7947 93.0111 55.7947 92.299H55.789C55.789 91.722 55.772 91.1393 55.7947 90.5566C55.8004 90.2567 55.6711 89.8147 56.1955 89.8275C56.6603 89.8388 56.5423 90.251 56.548 90.5281C56.5594 91.5344 56.5835 92.552 56.5423 93.5583C56.5125 94.1993 56.7711 94.4238 57.3837 94.3698C57.7077 94.34 58.0432 94.3641 58.3658 94.3812C58.5477 94.3869 58.7367 94.4167 58.7595 94.6456C58.7765 94.8744 58.6188 94.9696 58.4297 94.9753L58.4312 94.9767ZM61.2794 92.3872H61.2737C61.2737 93.0935 61.2794 93.8056 61.2737 94.5176C61.2737 94.7593 61.2439 94.9938 60.9326 95.0122C60.5617 95.0364 60.5318 94.7706 60.5318 94.5063V90.3107C60.5318 90.0819 60.556 89.8346 60.8729 89.8161C61.2325 89.799 61.2737 90.0577 61.2794 90.3277V92.3872ZM67.1052 90.3036C66.6049 91.7391 66.0989 93.176 65.5986 94.6114C65.492 94.9227 65.2575 95.0179 64.9519 95.0179C64.6279 95.0236 64.5227 94.8062 64.4346 94.5532C63.9699 93.2172 63.4923 91.8812 63.046 90.5338C62.9693 90.3107 62.6864 89.981 63.0986 89.8275C63.5278 89.674 63.6643 90.0335 63.7695 90.3576C64.1219 91.4164 64.4701 92.4767 64.8226 93.5299C64.8638 93.6478 64.9107 93.7587 65.0344 94.0955C65.4693 92.8064 65.8289 91.7362 66.1884 90.6589C66.2652 90.4471 66.3363 90.2297 66.4357 90.0236C66.5352 89.8061 66.747 89.7706 66.9531 89.8175C67.2473 89.8943 67.1705 90.1174 67.1066 90.3064L67.1052 90.3036ZM71.2425 95.0407C70.6598 95.0407 70.0714 95.0108 69.4886 95.0108C69.0821 95.0051 68.8889 94.8289 68.8945 94.4111C68.9002 93.0637 68.9002 91.722 68.8945 90.3746C68.8889 89.9568 69.0836 89.7749 69.4943 89.7862C69.7999 89.7976 70.0998 89.7862 70.4068 89.7862C70.7138 89.7862 71.0193 89.7806 71.3192 89.7919C71.531 89.7976 71.7541 89.8218 71.7371 90.116C71.72 90.3519 71.5253 90.3746 71.3434 90.3803C70.9611 90.3917 70.5844 90.3974 70.2021 90.3917C69.6251 90.3746 69.6436 90.774 69.6492 91.1691C69.6549 91.5458 69.591 91.9693 70.185 91.9579C70.5148 91.9466 70.8445 91.9579 71.1743 91.9693C71.386 91.975 71.5978 92.0048 71.6092 92.2806C71.6148 92.5577 71.4088 92.6046 71.197 92.616C71.0208 92.6217 70.8374 92.6217 70.6612 92.6217C69.6961 92.6274 69.3664 93.1163 69.6663 94.0571C69.7601 94.3457 69.9605 94.3755 70.1964 94.3755C70.5489 94.3869 70.9085 94.3755 71.2609 94.3869C71.4898 94.3926 71.7612 94.3812 71.7499 94.7166C71.7385 95.0464 71.4613 95.0407 71.2439 95.0407H71.2425Z" fill="white"/>
</g>
</g>
</svg>
