<svg width="128" height="128" viewBox="0 0 128 128" fill="none" xmlns="http://www.w3.org/2000/svg">
<g id="Layer_1">
<rect width="128" height="128" rx="64" fill="white" fill-opacity="0.1"/>
<g id="Group 13">
<path id="Vector" d="M65.2528 30.3158C47.5744 30.3158 33.1933 44.6969 33.1933 62.3735C33.1933 64.9844 33.5067 67.5237 34.0994 69.9541C32.1374 72.8034 30.9895 76.2556 30.9895 79.9769C30.9895 89.7562 38.9175 97.6842 48.6968 97.6842C52.8081 97.6842 56.5924 96.2825 59.5967 93.9305C61.4327 94.2592 63.3231 94.4313 65.2528 94.4313C82.9277 94.4313 97.3088 80.0502 97.3088 62.3735C97.3088 44.6969 82.9277 30.3158 65.2528 30.3158ZM36.4906 73.5715L36.6983 73.2121C36.712 73.19 36.7409 73.1815 36.7631 73.1951L40.1778 75.1656C40.2 75.1792 40.2085 75.2082 40.1948 75.2303L39.9871 75.5897C39.9734 75.6118 39.9445 75.6203 39.9223 75.6067L36.5076 73.6362C36.4855 73.6226 36.4769 73.5936 36.4906 73.5715ZM40.1165 72.5019L40.4094 72.209C40.4282 72.1903 40.4588 72.1903 40.4776 72.209L41.6186 73.3501C41.6374 73.3688 41.6374 73.3995 41.6186 73.4182L41.3257 73.7112C41.307 73.7299 41.2763 73.7299 41.2576 73.7112L40.1165 72.5701C40.0978 72.5513 40.0978 72.5207 40.1165 72.5019ZM38.9413 79.3536V79.7691C38.9413 79.7947 38.9192 79.8168 38.8937 79.8168H37.1786C37.1531 79.8168 37.1309 79.7947 37.1309 79.7691V79.3536C37.1309 79.328 37.1531 79.3059 37.1786 79.3059H38.8937C38.9192 79.3059 38.9413 79.328 38.9413 79.3536ZM35.1621 82.8296C35.1366 82.8347 35.111 82.8177 35.1059 82.7922L35.0293 82.3851C35.0242 82.3596 35.0412 82.334 35.0668 82.3289L38.9465 81.5949C38.972 81.5898 38.9976 81.6068 39.0027 81.6323L39.0793 82.0394C39.0844 82.0649 39.0674 82.0905 39.0418 82.0956L35.1604 82.8296H35.1621ZM40.3549 85.1271L38.6671 86.2052C38.645 86.2188 38.6161 86.2137 38.6007 86.1899L38.3776 85.8407C38.364 85.8186 38.3708 85.7896 38.3929 85.7743L40.0807 84.6963C40.1029 84.6826 40.1318 84.6877 40.1472 84.7116L40.3703 85.0607C40.3839 85.0828 40.3771 85.1118 40.3549 85.1271ZM50.8887 91.0761C50.8887 91.3333 50.6809 91.5411 50.4238 91.5411H49.051V91.5717C49.051 91.7812 48.8824 91.9498 48.6729 91.9498H47.7941C47.5847 91.9498 47.416 91.7812 47.416 91.5717V91.5411H46.0433C45.7862 91.5411 45.5784 91.3333 45.5784 91.0761V90.9859C45.5784 90.7287 45.7862 90.5209 46.0433 90.5209H50.422C50.6792 90.5209 50.887 90.7287 50.887 90.9859V91.0761H50.8887ZM51.2974 89.7102C51.2974 89.763 51.2549 89.8056 51.2021 89.8056H45.2667C45.2139 89.8056 45.1713 89.763 45.1713 89.7102V88.8808C45.1713 88.828 45.2139 88.7854 45.2667 88.7854H51.2021C51.2549 88.7854 51.2974 88.828 51.2974 88.8808V89.7102ZM51.5018 87.9747C51.5018 88.0275 51.4592 88.0701 51.4064 88.0701H45.0623C45.0095 88.0701 44.967 88.0275 44.967 87.9747V87.1453C44.967 87.0925 45.0095 87.05 45.0623 87.05H51.4064C51.4592 87.05 51.5018 87.0925 51.5018 87.1453V87.9747ZM55.855 83.6795C55.3611 84.6877 54.6713 85.5819 53.8334 86.3125L53.3889 86.0945L52.367 85.5938L50.1206 84.4919L48.334 83.6165L46.5475 84.4919L44.3011 85.5938L43.2792 86.0945L42.8347 86.3125C41.9967 85.5819 41.3053 84.6877 40.8131 83.6795C40.6036 83.2554 40.4299 82.8092 40.297 82.3476C40.079 81.6017 39.9615 80.8148 39.9615 79.9991C39.9615 77.4461 41.1043 75.1588 42.9079 73.6243C43.0288 73.5204 43.1532 73.4216 43.2792 73.3245V82.4703L44.3011 81.9696L46.5475 80.8676L48.334 79.9922L50.1206 80.8676L52.367 81.9696L53.3889 82.4703V73.3245C53.5149 73.4199 53.6409 73.5204 53.7602 73.6243C55.5638 75.1588 56.7065 77.4461 56.7065 79.9991C56.7065 80.8131 56.5907 81.6017 56.371 82.3476C56.2365 82.8092 56.0645 83.2554 55.855 83.6795ZM48.334 73.5783L50.1206 72.4883L50.8836 72.0234L50.9841 71.9621L52.367 72.6399V80.384L50.1206 79.282V75.6084L48.334 76.5826L46.5475 75.6084V79.282L44.3011 80.384V72.6399L45.684 71.9621L45.7845 72.0234L46.5475 72.4883L48.334 73.5783ZM47.0908 69.1706C47.0908 69.1451 47.1095 69.1213 47.1367 69.1213L47.5506 69.1008C47.5761 69.1008 47.6 69.1195 47.6 69.1468L47.6681 70.5536C47.6681 70.5791 47.6494 70.603 47.6221 70.603L47.2083 70.6234C47.1827 70.6234 47.1589 70.6047 47.1589 70.5774L47.0908 69.1706ZM50.8887 70.7477L51.8033 68.1369C51.8118 68.1113 51.839 68.0994 51.8646 68.1079L52.2563 68.2459C52.2819 68.2544 52.2938 68.2816 52.2853 68.3072L51.3707 70.918C51.3622 70.9436 51.3349 70.9555 51.3094 70.947L50.9177 70.809C50.8921 70.8005 50.8802 70.7733 50.8887 70.7477ZM45.2752 71.1122L44.8852 71.2519C44.8597 71.2604 44.8324 71.2484 44.8239 71.2229L43.7288 68.1573C43.7203 68.1317 43.7322 68.1045 43.7578 68.096L44.1478 67.9563C44.1733 67.9478 44.2006 67.9597 44.2091 67.9853L45.3042 71.0509C45.3127 71.0764 45.3008 71.1037 45.2752 71.1122ZM53.6886 72.146L54.3528 71.2314C54.3682 71.2093 54.3988 71.2059 54.4193 71.2212L54.7548 71.4647C54.7769 71.4801 54.7803 71.5107 54.765 71.5312L54.1008 72.4457C54.0854 72.4679 54.0548 72.4713 54.0344 72.456L53.6988 72.2124C53.6767 72.1971 53.6733 72.1664 53.6886 72.146ZM56.526 74.9783C56.5039 74.9936 56.4749 74.9868 56.4596 74.9646L56.228 74.6206C56.2126 74.5985 56.2195 74.5695 56.2416 74.5542L59.222 72.5513C59.2442 72.536 59.2731 72.5428 59.2885 72.565L59.5201 72.909C59.5354 72.9311 59.5286 72.9601 59.5065 72.9754L56.526 74.9783ZM58.8542 77.7118C58.861 77.7373 58.8457 77.7629 58.8201 77.7697L57.7233 78.0405C57.6978 78.0473 57.6722 78.032 57.6654 78.0064L57.5666 77.6028C57.5598 77.5772 57.5751 77.5517 57.6007 77.5449L58.6975 77.2741C58.723 77.2673 58.7486 77.2826 58.7554 77.3081L58.8542 77.7118ZM57.9243 84.8291L57.7165 85.1884C57.7029 85.2106 57.6739 85.2191 57.6518 85.2055L56.6725 84.64C56.6503 84.6264 56.6418 84.5975 56.6554 84.5753L56.8632 84.216C56.8769 84.1938 56.9058 84.1853 56.9279 84.1989L57.9072 84.7644C57.9294 84.778 57.9379 84.8069 57.9243 84.8291ZM60.8707 81.7567C60.8673 81.7822 60.8451 81.8027 60.8179 81.7992L57.725 81.4927C57.6995 81.4893 57.679 81.4671 57.6824 81.4399L57.7233 81.0277C57.7267 81.0022 57.7488 80.9817 57.7761 80.9852L60.869 81.2917C60.8945 81.2951 60.9149 81.3173 60.9115 81.3445L60.8707 81.7567ZM65.2511 90.2518C64.5511 90.2518 63.8579 90.2263 63.1699 90.1752C65.2051 87.2918 66.4007 83.7732 66.4007 79.9752C66.4007 70.1959 58.4744 62.2679 48.6951 62.2679C44.5071 62.2679 40.6581 63.7224 37.6265 66.1544C37.4579 64.918 37.3711 63.6543 37.3711 62.3718C37.3711 46.9978 49.877 34.4918 65.2511 34.4918C80.6251 34.4918 93.1294 46.9978 93.1294 62.3718C93.1294 77.7458 80.6234 90.2518 65.2511 90.2518Z" fill="white"/>
<path id="Vector_2" d="M86.9999 69.7548C86.8228 69.5249 86.6354 69.3035 86.4651 69.0702C83.6567 65.2296 80.8499 61.3857 78.0432 57.5435C77.6464 57.0019 77.6413 57.0002 78.1164 56.5165C80.4242 54.173 82.8034 51.9011 85.089 49.5337C85.5114 49.0977 85.9542 48.6822 86.3953 48.2513C86.3271 48.2019 86.3118 48.178 86.2948 48.178C84.5338 48.178 82.771 48.1815 81.01 48.1797C80.8482 48.1797 80.7392 48.2462 80.6353 48.3586C80.0052 49.0364 79.375 49.7143 78.7364 50.3836C76.6603 52.5619 74.5229 54.6839 72.5234 56.9355C72.4689 56.9968 72.4195 57.0853 72.2748 57.0564V56.8094C72.2748 54.0334 72.2117 51.2573 72.2679 48.4812C72.273 48.2445 72.2066 48.1729 71.9716 48.178C71.3483 48.1917 70.7232 48.178 70.0982 48.1832C68.8345 48.1917 67.8449 49.1284 67.7768 50.3836C67.7598 50.7055 67.7496 51.0291 67.7496 51.3527C67.7496 55.8353 67.7547 60.3179 67.7598 64.8005C67.7598 65.1802 67.7666 65.5583 67.77 65.9381C67.77 66.0011 67.7462 66.0795 67.8262 66.1135C67.9046 66.1459 67.9454 66.0778 67.9897 66.0318C68.0289 65.9926 68.0663 65.95 68.1055 65.9109C69.5651 64.4224 71.023 62.9304 72.4859 61.4453C73.4192 60.4967 74.3628 60.4626 75.3778 61.3244C75.7627 61.6514 76.0778 62.0431 76.3673 62.4518C77.6344 64.2435 78.8811 66.0505 80.1874 67.8167C80.6507 68.4434 81.1071 69.077 81.5363 69.7276C81.6623 69.9183 81.7781 70.0256 82.0029 70.0256C82.7268 70.029 83.4523 70.0426 84.1761 70.046C85.0686 70.0512 85.9593 70.0511 86.8517 70.0529C86.9403 70.0529 87.0459 70.0716 87.0935 69.9796C87.1463 69.8808 87.0476 69.8195 86.9965 69.7531L86.9999 69.7548Z" fill="white"/>
<path id="Vector_3" d="M63.6978 58.3525C62.8923 58.0306 62.0833 57.7121 61.2454 57.4805C59.7006 57.053 58.1525 56.6391 56.6078 56.2099C56.0713 56.0601 55.545 55.8812 55.0443 55.6292C53.9101 55.0569 53.486 54.1321 53.8726 53.0132C54.1195 52.2962 54.6373 51.8193 55.3287 51.5366C56.1854 51.1858 57.0932 51.167 57.9975 51.2147C59.5508 51.2982 60.8792 51.8006 61.6098 53.3163C61.6286 53.3555 61.6592 53.3913 61.6831 53.4288C62.1293 54.1253 62.7765 54.4523 63.594 54.4608C64.1628 54.466 64.7316 54.4608 65.3005 54.4694C66.1248 54.4813 66.152 54.4813 66.0396 53.6689C65.682 51.1091 64.3723 49.2459 61.9522 48.2343C60.6339 47.6824 59.2442 47.5258 57.3248 47.5292C56.4409 47.5411 55.0716 47.6995 53.7431 48.1201C51.8391 48.7248 50.4306 49.8812 49.7527 51.8074C49.298 53.1018 49.2486 54.4404 49.5467 55.7654C49.9043 57.3595 50.7371 58.625 52.2751 59.3556C53.1777 59.7848 54.1263 60.0505 55.0852 60.3042C56.8156 60.7624 58.5732 61.1251 60.2576 61.757C61.4787 62.2151 62.5159 62.9015 63.2823 63.9744C64.282 65.3727 64.5869 66.9259 64.3365 68.6069C64.3229 68.704 64.2667 68.8147 64.3604 68.8879C64.4438 68.9527 64.5 68.8556 64.5528 68.8062C65.5321 67.8916 66.2883 66.8391 66.6272 65.5175C66.9014 64.4513 66.944 63.3715 66.7635 62.2986C66.4518 60.449 65.4878 59.0678 63.6978 58.3525Z" fill="white"/>
</g>
</g>
</svg>
