<svg width="128" height="128" viewBox="0 0 128 128" fill="none" xmlns="http://www.w3.org/2000/svg">
<g id="Layer_1">
<rect width="128" height="128" rx="64" fill="white" fill-opacity="0.1"/>
<g id="Group 16">
<path id="Vector" d="M89.734 71.018C89.734 74.4221 89.7525 77.7922 89.7255 81.1623C89.7142 82.56 89.7439 83.857 90.6989 85.073C91.7092 86.3601 91.3162 87.7549 90.1796 88.7922C89.033 89.8394 87.6495 90.0139 86.4051 88.9497C85.2671 87.9777 84.6115 86.6339 85.5636 85.2774C87.3132 82.7871 86.4136 80.0498 86.5725 77.4119C86.6165 76.6883 86.1653 76.7095 85.6048 76.8685C84.6072 77.1494 84.3518 76.64 84.3674 75.7134C84.4171 72.8854 84.4327 70.0559 84.4086 67.2279C84.3972 65.9395 84.8314 65.6386 86.0503 66.1268C88.3108 67.0321 89.4516 68.6994 89.734 71.0152V71.018Z" fill="white"/>
<path id="Vector_2" d="M43.8172 67.9587C43.7945 70.3624 43.759 73.0741 43.7519 75.7858C43.7505 76.4825 43.6568 77.0458 42.7685 76.8429C41.605 76.5776 41.4645 77.1679 41.4957 78.1342C41.5454 79.6397 41.5085 81.151 41.4304 82.6551C41.3893 83.4483 41.6944 84.0059 42.1626 84.609C43.312 86.0862 43.2481 87.5009 42.0959 88.6602C40.992 89.7699 39.3672 89.872 38.1526 88.9085C36.9266 87.9365 36.6754 86.3274 37.6531 84.8474C39.0451 82.7402 38.3257 80.4003 38.4619 78.1682C38.601 75.8865 38.4364 73.5878 38.4562 71.2961C38.4761 69.1095 39.5815 67.533 41.3992 66.412C43.1588 65.3265 43.6455 65.5819 43.8186 67.9573L43.8172 67.9587Z" fill="white"/>
<g id="Group">
<path id="Vector_3" d="M82.4405 57.2226C81.1988 47.3267 74.7169 40.981 65.5006 39.8699C57.4422 38.9007 49.4746 44.0375 46.3671 52.0618C45.0119 55.5667 45.3752 59.1794 45.256 62.7737C45.2219 63.811 45.9485 63.8678 46.7303 63.8621C49.3838 63.8507 52.0387 63.8507 54.6866 63.845C63.4828 63.8394 72.2834 63.8223 81.0797 63.8564C82.134 63.8564 82.4859 63.4421 82.4745 62.4842C82.4518 60.4366 82.4461 58.3905 82.4405 57.2212V57.2226ZM64.5258 59.0659C60.8677 59.4462 57.482 56.6721 57.052 52.9529C56.632 49.3459 59.4629 45.8523 63.1309 45.4621C66.7096 45.0705 70.2372 47.7935 70.6899 51.297C71.178 55.08 68.3301 58.6686 64.5258 59.0659Z" fill="white"/>
<path id="Vector_4" d="M66.6443 32.8672C66.7422 33.7427 66.5677 34.553 65.9717 35.2185C65.5091 35.735 65.2112 36.2785 65.2764 37.0007C65.3687 37.9968 64.8167 38.2139 63.9312 38.143C63.182 38.082 62.3746 38.1515 62.4796 37.0717C62.5719 36.1167 62.0397 35.5292 61.5105 34.8595C60.7215 33.8633 60.6406 32.758 61.4168 31.6951C62.1873 30.6408 63.2118 30.0491 64.5386 30.4337C65.7263 30.7771 66.4925 31.5788 66.6429 32.8672H66.6443Z" fill="white"/>
<path id="Vector_5" d="M58.9421 52.8422C58.5746 50.2001 60.5002 47.6743 63.2303 47.3522C64.3045 47.2259 65.5872 46.9066 65.2084 48.9613C64.9785 50.2115 66.0072 51.0259 67.2716 50.8188C68.7956 50.5676 68.8849 51.3793 68.8154 52.4534C68.6551 54.958 66.3975 57.2226 64.0448 57.2581C61.4481 57.2964 59.3054 55.4418 58.9436 52.8408L58.9421 52.8422Z" fill="white"/>
</g>
<path id="Vector_6" d="M82.4617 67.6281C82.4674 66.3864 82.0247 65.9551 80.749 65.9664C75.4292 66.0175 70.1109 65.9778 64.7911 65.9608H64.6663C58.7576 65.9494 52.8532 65.9324 46.9446 65.9153C45.93 65.9153 45.2092 66.1254 45.2262 67.4181C45.2829 71.9999 45.2773 76.5762 45.2943 80.9722C45.4475 81.693 45.5724 82.2195 45.6746 82.753C47.603 92.9725 58.1219 100.77 70.565 96.4831C73.8201 95.3607 76.5928 93.2166 78.6461 90.4723C80.9831 87.342 82.378 83.4341 82.4745 79.3801C82.5653 75.4665 82.4348 71.5487 82.4631 67.6295L82.4617 67.6281ZM76.6595 75.1061L79.0108 73.5268C79.0264 73.5168 79.0462 73.5211 79.0576 73.5353L79.2449 73.8134C79.2548 73.829 79.2506 73.8489 79.2364 73.8602L76.8851 75.4396C76.8695 75.4495 76.8496 75.4452 76.8383 75.431L76.651 75.1529C76.6411 75.1373 76.6453 75.1175 76.6595 75.1061ZM78.7199 77.5922C78.7241 77.6106 78.7128 77.6276 78.6957 77.6319L77.8245 77.8476C77.806 77.8518 77.789 77.8405 77.7848 77.8234L77.7039 77.4985C77.6996 77.4801 77.711 77.463 77.728 77.4588L78.5992 77.2431C78.6177 77.2388 78.6347 77.2502 78.639 77.2672L78.7199 77.5922ZM74.6531 73.2118L75.1809 72.4852C75.1923 72.4696 75.2121 72.4668 75.2278 72.4781L75.4988 72.6754C75.5144 72.6867 75.5172 72.7066 75.5059 72.7222L74.978 73.4487C74.9667 73.4629 74.9468 73.4672 74.9312 73.4558L74.6602 73.2586C74.646 73.2472 74.6417 73.2274 74.6531 73.2118ZM73.1731 70.0517C73.1787 70.0347 73.1986 70.0247 73.2156 70.0318L73.5321 70.1425C73.5491 70.1482 73.559 70.168 73.5519 70.1851L72.8297 72.2468C72.824 72.2639 72.8041 72.2738 72.7871 72.2667L72.4707 72.156C72.4536 72.1504 72.4437 72.1305 72.4508 72.1135L73.1731 70.0517ZM69.4965 70.8307L69.8314 70.8151C69.8498 70.8151 69.8654 70.8279 69.8668 70.8463L69.9207 71.9602C69.9207 71.9787 69.908 71.9943 69.8895 71.9957L69.5546 72.0113C69.5362 72.0113 69.5206 71.9985 69.5192 71.9801L69.4653 70.8662C69.4653 70.8477 69.478 70.8321 69.4965 70.8307ZM68.4365 73.1138L69.0367 73.4799L70.4429 74.3384L71.8492 73.4799L72.4494 73.1138L72.5288 73.0656L73.6158 73.5991V79.6923L71.8492 78.8252V75.9348L70.4429 76.701L69.0367 75.9348V78.8252L67.2701 79.6923V73.5991L68.357 73.0656L68.4365 73.1138ZM66.8373 70.0261L67.1523 69.914C67.1693 69.9084 67.1892 69.9169 67.1949 69.9339L68.059 72.3547C68.0647 72.3717 68.0562 72.3916 68.0392 72.3973L67.7242 72.5094C67.7071 72.515 67.6873 72.5065 67.6816 72.4895L66.8174 70.0687C66.8118 70.0517 66.8203 70.0318 66.8373 70.0261ZM63.9752 73.4941L64.2122 73.2572C64.225 73.2444 64.2462 73.2444 64.259 73.2572L65.1629 74.1611C65.1757 74.1738 65.1757 74.1951 65.1629 74.2079L64.9259 74.4448C64.9132 74.4576 64.8919 74.4576 64.8791 74.4448L63.9752 73.541C63.9624 73.5282 63.9624 73.5069 63.9752 73.4941ZM61.1231 74.3356L61.2905 74.0461C61.299 74.0305 61.3203 74.0248 61.3359 74.0333L64.0291 75.5885C64.0447 75.5971 64.0504 75.6183 64.0419 75.634L63.8745 75.9234C63.8645 75.939 63.8447 75.9447 63.8291 75.9362L61.1358 74.381C61.1202 74.3725 61.1145 74.3512 61.1231 74.3356ZM63.0529 78.8778V79.2126C63.0529 79.2311 63.0387 79.2467 63.0202 79.2467H61.6637C61.6452 79.2467 61.6296 79.2311 61.6296 79.2126V78.8778C61.6296 78.8593 61.6452 78.8437 61.6637 78.8437H63.0202C63.0387 78.8437 63.0529 78.8593 63.0529 78.8778ZM60.0006 81.2219L63.0614 80.643C63.0798 80.6401 63.0969 80.6515 63.0997 80.6699L63.1621 80.9991C63.165 81.0176 63.1536 81.0346 63.1352 81.0374L60.0744 81.6164C60.056 81.6192 60.039 81.6079 60.0361 81.5894L59.9737 81.2602C59.9708 81.2418 59.9822 81.2248 60.0006 81.2219ZM57.9162 80.0229C57.997 80.1775 58.0637 80.3464 58.1148 80.5238C58.1588 80.6742 58.0722 80.8317 57.9218 80.8757C57.8949 80.8828 57.8693 80.887 57.8424 80.887C57.7189 80.887 57.6054 80.8062 57.5699 80.6827C57.5288 80.5408 57.4763 80.4074 57.4138 80.2854C57.3287 80.1222 57.2166 79.9704 57.0804 79.8342C56.9697 79.7235 56.9697 79.5433 57.0804 79.4326C57.1911 79.3219 57.3713 79.3219 57.4819 79.4326C57.6593 79.6085 57.8055 79.8086 57.9176 80.0229H57.9162ZM49.635 75.4509C48.9936 75.441 48.3508 75.4396 47.7094 75.431C47.6016 75.4296 47.4909 75.4254 47.3887 75.397C47.1716 75.3374 47.1078 75.1515 47.227 74.9614C47.3305 74.7939 47.4852 74.679 47.6356 74.5612C48.768 73.6814 49.8989 72.8031 51.0312 71.9247C52.0174 71.1613 53.0051 70.3993 53.9898 69.6359C54.5929 69.1691 55.1917 68.7008 55.7919 68.2311C56.1297 67.9686 56.4844 68.0793 56.6263 68.5476C56.6391 68.6483 56.6646 68.8143 56.6788 68.9818C56.8349 70.8449 56.9896 72.7094 57.1456 74.5754C57.2024 75.2565 57.2606 75.9376 57.3173 76.6202C57.3273 76.7507 57.3372 76.8827 57.3173 77.0146C57.2734 77.3013 57.1272 77.4346 56.8363 77.4503C56.7143 77.4559 56.5979 77.4304 56.4844 77.3892C55.5819 77.0629 54.6795 76.7379 53.7756 76.413C53.1767 76.2001 52.5794 75.9844 51.9791 75.7759C51.8585 75.7333 51.8316 75.6907 51.9039 75.5715C52.595 74.442 53.2803 73.3082 53.9671 72.1759C54.3176 71.597 54.6709 71.018 55.0157 70.4362C55.064 70.3539 55.1903 70.2461 55.0683 70.1581C54.9633 70.0829 54.8483 70.1766 54.7703 70.2617C54.4893 70.5739 54.2154 70.8903 53.9402 71.2081C53.4393 71.7828 52.9426 72.3575 52.4431 72.9322C51.8543 73.6105 51.2583 74.2859 50.6751 74.9699C50.2579 75.4594 50.265 75.4623 49.6321 75.4523L49.635 75.4509ZM56.5894 79.1346C56.5497 79.2524 56.439 79.3262 56.3212 79.3262C56.2914 79.3262 56.2588 79.3205 56.229 79.3105C55.975 79.2226 55.7167 79.1701 55.4542 79.18L55.2286 79.1913C55.0697 79.1984 54.9349 79.0892 54.9221 78.9331C54.9093 78.777 55.0243 78.6408 55.1804 78.6266L55.3279 78.6167C55.3677 78.6138 55.4074 78.6124 55.4585 78.6138C55.7806 78.6138 56.1027 78.6692 56.4134 78.7756C56.5624 78.8267 56.6405 78.9884 56.5894 79.136V79.1346ZM54.2467 79.4751C53.9387 79.627 53.6521 79.8285 53.3924 80.0754C53.3371 80.1279 53.2676 80.1534 53.1966 80.1534C53.1214 80.1534 53.0476 80.1236 52.9909 80.0654C52.883 79.9519 52.8873 79.7731 53.0008 79.6639C53.3016 79.3772 53.6365 79.1417 53.9955 78.9657C54.1374 78.8962 54.3063 78.9544 54.3744 79.0949C54.4439 79.2353 54.3857 79.4056 54.2452 79.4737L54.2467 79.4751ZM52.7213 80.9012C52.5269 81.2035 52.3679 81.5256 52.2473 81.8576C52.2062 81.974 52.0969 82.0449 51.9805 82.0449C51.9479 82.0449 51.9153 82.0392 51.8841 82.0279C51.7365 81.9754 51.6599 81.8122 51.7138 81.6646C51.8486 81.2914 52.0274 80.931 52.2431 80.5933C52.3282 80.4613 52.5027 80.4244 52.6347 80.5082C52.7667 80.5933 52.805 80.7678 52.7198 80.8998L52.7213 80.9012ZM50.9646 77.3339C50.9646 77.3339 50.8922 77.7795 50.861 78.4308C50.8539 78.5826 50.729 78.7004 50.5786 78.7004C50.5743 78.7004 50.5701 78.7004 50.5644 78.7004C50.4083 78.6933 50.2877 78.5599 50.2948 78.4038C50.3274 77.717 50.4012 77.2615 50.4055 77.2431C50.431 77.0884 50.5772 76.9834 50.7304 77.009C50.8851 77.0345 50.9901 77.1806 50.9646 77.3339ZM50.3998 80.7238C50.343 80.3578 50.3061 79.9675 50.2891 79.5631C50.2834 79.407 50.4041 79.2751 50.5616 79.268C50.7035 79.2666 50.8496 79.3829 50.8567 79.5404C50.8723 79.9235 50.9078 80.2925 50.9603 80.6387C50.9844 80.7934 50.878 80.9381 50.7233 80.9622C50.7091 80.9651 50.6935 80.9651 50.6793 80.9651C50.5417 80.9651 50.4211 80.8643 50.3998 80.7253V80.7238ZM51.3888 84.0102C51.3817 83.8811 51.3775 83.7534 51.3775 83.6243C51.3775 83.4526 51.3846 83.2794 51.3988 83.1077C51.2952 83.1177 51.1916 83.0623 51.1363 82.9658C50.9489 82.6409 50.79 82.272 50.6637 81.869C50.6169 81.72 50.6992 81.5611 50.8496 81.5142C51 81.4646 51.159 81.5497 51.2044 81.7001C51.3079 82.0307 51.4371 82.3358 51.5847 82.6068C51.6329 82.5827 51.6911 82.5699 51.7478 82.5799C51.9025 82.5997 52.0118 82.7431 51.9905 82.8977C51.9664 83.0836 51.9507 83.2723 51.9451 83.4611C52.0487 83.4057 52.1806 83.4185 52.2714 83.5022C52.4956 83.708 52.7482 83.8783 53.0221 84.0074L53.1413 84.0599C53.2846 84.1223 53.3513 84.2898 53.2888 84.4331C53.242 84.5395 53.137 84.6034 53.0292 84.6034C52.9909 84.6034 52.954 84.5963 52.9157 84.5806L52.7823 84.521C52.4814 84.3806 52.2033 84.1975 51.9536 83.979C51.9607 84.1337 51.8429 84.2671 51.6868 84.2756C51.5279 84.2912 51.3959 84.1649 51.3874 84.0088L51.3888 84.0102ZM52.287 86.4565C52.2516 86.4707 52.2161 86.4764 52.1806 86.4764C52.0685 86.4764 51.9621 86.4097 51.9181 86.299C51.7705 85.9315 51.6499 85.5541 51.5619 85.178C51.5265 85.0262 51.6201 84.873 51.7734 84.8375C51.9295 84.7977 52.0785 84.8971 52.1139 85.0489C52.1962 85.3966 52.3069 85.747 52.4446 86.0876C52.5027 86.2323 52.4318 86.3984 52.287 86.4565ZM53.4747 88.3821C53.4237 88.4218 53.3626 88.4403 53.3016 88.4403C53.2165 88.4403 53.1328 88.402 53.0774 88.3296C52.839 88.0188 52.6205 87.6911 52.4289 87.3533C52.3509 87.2171 52.3991 87.044 52.5354 86.966C52.6688 86.8907 52.8433 86.9362 52.9227 87.0724C53.103 87.3874 53.3059 87.6953 53.5287 87.9848C53.6237 88.1097 53.601 88.287 53.4762 88.3821H53.4747ZM55.1435 89.9089C55.0881 89.9841 55.0016 90.0239 54.9164 90.0239C54.8582 90.0239 54.7986 90.0054 54.7476 89.9685C54.4297 89.733 54.1303 89.4776 53.855 89.2094C53.7429 89.1001 53.7415 88.9199 53.8508 88.8078C53.96 88.6957 54.1402 88.6943 54.2523 88.8035C54.5092 89.0533 54.7887 89.2931 55.0853 89.513C55.2116 89.6067 55.2371 89.7841 55.1435 89.9089ZM55.2797 84.9453C55.108 84.9652 54.9164 84.9652 54.766 84.9737C54.5376 84.9737 54.3034 84.9553 54.0721 84.9184C53.9175 84.8928 53.8125 84.7481 53.8366 84.5934C53.8607 84.4387 54.0097 84.3337 54.1615 84.3579C54.3673 84.3905 54.5759 84.409 54.7774 84.4061C54.9235 84.4061 55.0697 84.3976 55.2144 84.3806C55.3719 84.365 55.511 84.4742 55.5294 84.6289C55.5465 84.785 55.4358 84.9255 55.2811 84.9439L55.2797 84.9453ZM57.1414 90.976C57.0946 91.0824 56.991 91.1463 56.8817 91.1463C56.8434 91.1463 56.8051 91.1392 56.7682 91.1222C56.4064 90.9647 56.0559 90.7887 55.7281 90.6028C55.5919 90.5262 55.5436 90.3531 55.6217 90.2168C55.6983 90.0806 55.8714 90.0324 56.0076 90.1104C56.3198 90.2864 56.6518 90.4538 56.9952 90.6028C57.1386 90.6652 57.2038 90.8327 57.1414 90.976ZM57.4819 83.9932L57.367 84.0868C57.0832 84.3082 56.7753 84.4913 56.4503 84.6317C56.4135 84.6473 56.3751 84.6544 56.3382 84.6544C56.229 84.6544 56.124 84.5906 56.0786 84.4827C56.0161 84.3394 56.0828 84.172 56.2261 84.1095C56.5057 83.9889 56.7725 83.83 57.0179 83.6384L57.1173 83.5576C57.2365 83.4568 57.4153 83.4724 57.516 83.5916C57.6167 83.7108 57.6011 83.8896 57.4819 83.9904V83.9932ZM57.6423 82.7757C57.6948 82.5785 57.7203 82.3486 57.7203 82.0534C57.7203 81.9683 57.7175 81.8846 57.7161 81.8009L57.997 81.7228L58.2808 81.7157L57.9999 81.7938L58.2837 81.7867C58.2865 81.8746 58.2879 81.964 58.2879 82.0549C58.2879 82.4011 58.2581 82.6764 58.1914 82.9233C58.1574 83.0496 58.0424 83.1333 57.9176 83.1333C57.8934 83.1333 57.8693 83.1304 57.8438 83.1234C57.692 83.0836 57.6026 82.9275 57.6423 82.7757ZM59.3025 91.6585C59.2699 91.7877 59.1549 91.8728 59.0272 91.8728C59.0045 91.8728 58.9804 91.87 58.9577 91.8643C58.5746 91.7678 58.2014 91.6571 57.8495 91.5393C57.7005 91.4897 57.621 91.3293 57.6707 91.1803C57.7218 91.0313 57.8821 90.9505 58.0297 91.0015C58.3688 91.1151 58.7278 91.2215 59.0967 91.3151C59.2486 91.3535 59.3408 91.5081 59.3011 91.66L59.3025 91.6585ZM61.536 92.0544C61.5161 92.1963 61.3955 92.2999 61.2564 92.2999C61.2437 92.2999 61.2309 92.2999 61.2167 92.2971C60.8407 92.246 60.4618 92.185 60.0829 92.1126C59.9297 92.0828 59.8275 91.9352 59.8573 91.782C59.8871 91.6273 60.0375 91.528 60.1879 91.5564C60.5569 91.6259 60.9272 91.6855 61.2933 91.7352C61.448 91.7564 61.5573 91.8998 61.536 92.0544ZM63.514 92.5156C63.514 92.5156 63.5041 92.5156 63.4999 92.5156C63.111 92.4957 62.7279 92.4645 62.3562 92.429C62.2001 92.4134 62.0865 92.2744 62.1007 92.1183C62.1163 91.9622 62.2582 91.8558 62.4115 91.8629C62.7748 91.8983 63.1494 91.9281 63.5297 91.948C63.6857 91.9551 63.8063 92.0885 63.7978 92.246C63.7907 92.3978 63.6645 92.5156 63.5155 92.5156H63.514ZM64.1682 83.4185L62.8329 84.2713C62.8173 84.2812 62.7975 84.277 62.7875 84.2614L62.6073 83.979C62.5974 83.9634 62.6016 83.9435 62.6172 83.9336L63.9525 83.0808C63.9681 83.0708 63.988 83.0751 63.9979 83.0907L64.1781 83.3731C64.1881 83.3887 64.1838 83.4086 64.1682 83.4185ZM65.8057 92.483C65.4396 92.517 65.0508 92.5369 64.6492 92.5411H64.6464C64.4917 92.5411 64.364 92.4163 64.3626 92.2602C64.3612 92.1041 64.486 91.975 64.6436 91.9736C65.0295 91.9693 65.4027 91.9508 65.7518 91.9182C65.8979 91.9111 66.0455 92.0175 66.0611 92.1736C66.0753 92.3297 65.9618 92.4674 65.8057 92.483ZM68.0888 91.9948C67.7369 92.1225 67.3566 92.229 66.9579 92.3127C66.938 92.3169 66.9196 92.3184 66.8997 92.3184C66.7692 92.3184 66.65 92.2261 66.623 92.0927C66.5904 91.9395 66.6897 91.7891 66.843 91.7579C67.2133 91.6812 67.5681 91.5805 67.8944 91.4627C68.0434 91.4088 68.2052 91.4854 68.2577 91.6316C68.3116 91.7791 68.235 91.9409 68.0888 91.9948ZM70.118 90.7788C69.8314 91.0469 69.5092 91.2868 69.1616 91.4925C69.1162 91.5195 69.0665 91.5322 69.0183 91.5322C68.9218 91.5322 68.8267 91.4826 68.7742 91.3932C68.6947 91.2584 68.7387 91.0853 68.875 91.0044C69.1871 90.8199 69.4752 90.6042 69.732 90.3644C69.847 90.258 70.0258 90.2637 70.1336 90.3772C70.24 90.4921 70.2343 90.6709 70.1208 90.7788H70.118ZM72.4508 88.1011C72.4508 88.3041 72.2876 88.4672 72.0847 88.4672H71.0049V88.4914C71.0049 88.656 70.8729 88.7879 70.7083 88.7879H70.0172C69.8526 88.7879 69.7207 88.656 69.7207 88.4914V88.4672H68.6408C68.4379 88.4672 68.2747 88.3041 68.2747 88.1011V88.0302C68.2747 87.8273 68.4379 87.6641 68.6408 87.6641H72.0847C72.2876 87.6641 72.4508 87.8273 72.4508 88.0302V88.1011ZM72.7715 87.0355C72.7715 87.0724 72.7417 87.1022 72.7048 87.1022H68.0193C67.9824 87.1022 67.9526 87.0724 67.9526 87.0355V86.3657C67.9526 86.3288 67.9824 86.299 68.0193 86.299H72.7048C72.7417 86.299 72.7715 86.3288 72.7715 86.3657V87.0355ZM72.9318 85.6704C72.9318 85.7073 72.902 85.7371 72.8651 85.7371H67.8576C67.8207 85.7371 67.7909 85.7073 67.7909 85.6704V85.0007C67.7909 84.9638 67.8207 84.934 67.8576 84.934H72.8651C72.902 84.934 72.9318 84.9638 72.9318 85.0007V85.6704ZM76.7631 81.2347C76.6581 81.5979 76.5219 81.9484 76.3573 82.2833C75.9699 83.0765 75.4264 83.7803 74.7666 84.3536L74.4161 84.1819L73.6129 83.7889L71.8463 82.9219L70.4401 82.2322L69.0339 82.9219L67.2673 83.7889L66.4641 84.1819L66.1136 84.3536C65.4538 83.7789 64.9117 83.0751 64.5229 82.2833C64.3583 81.9499 64.2221 81.5979 64.1171 81.2347C63.9454 80.6486 63.8532 80.0286 63.8532 79.3872C63.8532 77.3779 64.7528 75.5786 66.1718 74.3711C66.2669 74.2888 66.3648 74.2107 66.4641 74.1355V81.3298L67.2673 80.9367L69.0339 80.0697L70.4401 79.3801L71.8463 80.0697L73.6129 80.9367L74.4161 81.3298V74.1355C74.5154 74.2107 74.6133 74.2888 74.7084 74.3711C76.1274 75.5786 77.027 77.3779 77.027 79.3872C77.027 80.0286 76.9348 80.6486 76.7631 81.2347ZM77.9877 83.1844L77.8202 83.4738C77.8117 83.4894 77.7904 83.4951 77.7748 83.4866L76.9972 83.0382C76.9816 83.0297 76.9759 83.0084 76.9845 82.9928L77.1519 82.7033C77.1604 82.6877 77.1817 82.682 77.1973 82.6906L77.9749 83.139C77.9905 83.1475 77.9962 83.1688 77.9877 83.1844ZM80.3034 80.7749C80.302 80.7934 80.285 80.8062 80.2666 80.8047L77.8245 80.5621C77.806 80.5607 77.7933 80.5436 77.7947 80.5252L77.8273 80.1917C77.8287 80.1733 77.8458 80.1605 77.8642 80.1619L80.3063 80.4046C80.3247 80.406 80.3375 80.423 80.3361 80.4415L80.3034 80.7749Z" fill="white"/>
</g>
</g>
</svg>
