<svg width="161" height="200" viewBox="0 0 161 200" fill="none" xmlns="http://www.w3.org/2000/svg">
<g id="Group 16">
<path id="Vector" d="M156.398 120.835C156.398 130.941 156.453 140.946 156.373 150.951C156.339 155.1 156.427 158.95 159.262 162.56C162.262 166.381 161.095 170.522 157.721 173.602C154.317 176.711 150.21 177.229 146.515 174.069C143.137 171.184 141.19 167.194 144.017 163.167C149.211 155.774 146.54 147.648 147.012 139.817C147.143 137.668 145.803 137.731 144.139 138.203C141.178 139.037 140.419 137.525 140.466 134.774C140.613 126.378 140.66 117.978 140.588 109.583C140.554 105.758 141.843 104.865 145.462 106.314C152.173 109.001 155.56 113.951 156.398 120.826V120.835Z" fill="url(#paint0_linear_38_3513)"/>
<path id="Vector_2" d="M20.0822 111.752C20.0148 118.888 19.9095 126.939 19.8884 134.989C19.8842 137.057 19.6061 138.73 16.969 138.127C13.5147 137.34 13.0977 139.092 13.1903 141.961C13.3378 146.43 13.2283 150.917 12.9966 155.382C12.8744 157.737 13.7801 159.393 15.1703 161.183C18.5825 165.568 18.3929 169.768 14.9723 173.21C11.6949 176.504 6.87143 176.807 3.26544 173.947C-0.374254 171.061 -1.11988 166.284 1.7826 161.891C5.91517 155.635 3.77937 148.688 4.18378 142.062C4.59662 135.288 4.10796 128.464 4.16694 121.66C4.22592 115.169 7.50753 110.488 12.9039 107.16C18.1275 103.938 19.5724 104.696 20.0864 111.748L20.0822 111.752Z" fill="url(#paint1_linear_38_3513)"/>
<g id="Group">
<path id="Vector_3" d="M134.745 79.8798C131.059 50.501 111.816 31.6623 84.455 28.3638C60.5316 25.4866 36.8778 40.7362 27.6522 64.5585C23.6292 74.9636 24.7076 85.6889 24.3538 96.3595C24.2527 99.4389 26.4095 99.6074 28.7307 99.5906C36.6082 99.5569 44.49 99.5568 52.3508 99.54C78.4647 99.5231 104.591 99.4726 130.705 99.5737C133.835 99.5737 134.88 98.3436 134.846 95.5001C134.779 89.4213 134.762 83.3467 134.745 79.8756V79.8798ZM81.5609 85.3519C70.7009 86.4809 60.6496 78.2453 59.3732 67.204C58.1262 56.4956 66.5304 46.1241 77.42 44.9657C88.0442 43.803 98.5167 51.887 99.8605 62.2879C101.31 73.5187 92.8549 84.1724 81.5609 85.3519Z" fill="url(#paint2_linear_38_3513)"/>
<path id="Vector_4" d="M87.8505 7.57454C88.1411 10.1737 87.623 12.5791 85.8537 14.5548C84.4804 16.0882 83.5958 17.7016 83.7895 19.8459C84.0634 22.8031 82.4246 23.4476 79.796 23.237C77.5717 23.0559 75.1748 23.2623 75.4865 20.0565C75.7603 17.2214 74.1806 15.4774 72.6093 13.489C70.2671 10.5318 70.027 7.25016 72.3312 4.09492C74.6187 0.964955 77.6602 -0.791696 81.599 0.349921C85.1249 1.36937 87.3997 3.74949 87.8463 7.57454H87.8505Z" fill="url(#paint3_linear_38_3513)"/>
<path id="Vector_5" d="M64.9843 66.8754C63.8933 59.0316 69.6098 51.5331 77.7148 50.5769C80.9038 50.2019 84.712 49.2541 83.5872 55.354C82.9048 59.0653 85.9589 61.4833 89.7124 60.8683C94.2367 60.1226 94.5021 62.5322 94.2957 65.7212C93.8196 73.1564 87.1174 79.8798 80.1329 79.9851C72.4238 80.0988 66.0628 74.5929 64.9886 66.8712L64.9843 66.8754Z" fill="url(#paint4_linear_38_3513)"/>
</g>
<path id="Vector_6" d="M134.808 110.771C134.825 107.085 133.511 105.804 129.724 105.838C113.931 105.989 98.1417 105.872 82.3487 105.821H81.978C64.4367 105.787 46.908 105.737 29.3668 105.686C26.3547 105.686 24.2147 106.31 24.2653 110.147C24.4338 123.75 24.4169 137.335 24.4675 150.386C24.9225 152.526 25.2932 154.089 25.5965 155.673C31.3214 186.012 62.5494 209.16 99.4898 196.434C109.153 193.102 117.385 186.737 123.481 178.59C130.419 169.297 134.56 157.695 134.846 145.66C135.116 134.041 134.728 122.41 134.812 110.775L134.808 110.771ZM117.583 132.971L124.563 128.283C124.61 128.253 124.669 128.266 124.702 128.308L125.258 129.134C125.288 129.18 125.275 129.239 125.233 129.273L118.253 133.961C118.206 133.991 118.147 133.978 118.114 133.936L117.558 133.11C117.528 133.064 117.541 133.005 117.583 132.971ZM123.7 140.352C123.712 140.406 123.679 140.457 123.628 140.47L121.041 141.11C120.987 141.123 120.936 141.089 120.924 141.038L120.683 140.074C120.671 140.019 120.704 139.968 120.755 139.956L123.342 139.315C123.396 139.303 123.447 139.336 123.46 139.387L123.7 140.352ZM111.626 127.347L113.193 125.191C113.227 125.144 113.286 125.136 113.332 125.169L114.137 125.755C114.183 125.789 114.192 125.848 114.158 125.894L112.591 128.051C112.557 128.093 112.498 128.106 112.452 128.072L111.647 127.486C111.605 127.453 111.593 127.394 111.626 127.347ZM107.233 117.966C107.249 117.915 107.308 117.886 107.359 117.907L108.298 118.236C108.349 118.252 108.378 118.311 108.357 118.362L106.213 124.483C106.196 124.533 106.137 124.563 106.087 124.542L105.147 124.213C105.097 124.196 105.067 124.137 105.088 124.087L107.233 117.966ZM96.3177 120.279L97.3119 120.232C97.3666 120.232 97.413 120.27 97.4172 120.325L97.5773 123.632C97.5773 123.687 97.5394 123.733 97.4846 123.737L96.4904 123.784C96.4356 123.784 96.3893 123.746 96.3851 123.691L96.225 120.384C96.225 120.329 96.2629 120.283 96.3177 120.279ZM93.1709 127.057L94.9528 128.144L99.1275 130.692L103.302 128.144L105.084 127.057L105.32 126.913L108.547 128.497V146.586L103.302 144.012V135.431L99.1275 137.706L94.9528 135.431V144.012L89.7081 146.586V128.497L92.935 126.913L93.1709 127.057ZM88.4233 117.89L89.3585 117.557C89.409 117.54 89.468 117.566 89.4848 117.616L92.0503 124.803C92.0672 124.854 92.0419 124.912 91.9913 124.929L91.0562 125.262C91.0056 125.279 90.9466 125.254 90.9298 125.203L88.3643 118.016C88.3474 117.966 88.3727 117.907 88.4233 117.89ZM79.9264 128.186L80.63 127.482C80.6679 127.444 80.731 127.444 80.769 127.482L83.4524 130.166C83.4903 130.204 83.4903 130.267 83.4524 130.305L82.7489 131.008C82.711 131.046 82.6478 131.046 82.6099 131.008L79.9264 128.325C79.8885 128.287 79.8885 128.224 79.9264 128.186ZM71.4591 130.684L71.9562 129.824C71.9815 129.778 72.0447 129.761 72.091 129.786L80.0865 134.403C80.1329 134.429 80.1497 134.492 80.1244 134.538L79.6274 135.398C79.5979 135.444 79.5389 135.461 79.4925 135.436L71.497 130.819C71.4507 130.793 71.4338 130.73 71.4591 130.684ZM77.1882 144.168V145.162C77.1882 145.217 77.1461 145.264 77.0914 145.264H73.0641C73.0093 145.264 72.963 145.217 72.963 145.162V144.168C72.963 144.114 73.0093 144.067 73.0641 144.067H77.0914C77.1461 144.067 77.1882 144.114 77.1882 144.168ZM68.1269 151.128L77.2135 149.409C77.2683 149.4 77.3188 149.434 77.3273 149.489L77.5126 150.466C77.521 150.521 77.4873 150.571 77.4326 150.58L68.346 152.299C68.2912 152.307 68.2407 152.273 68.2323 152.219L68.0469 151.241C68.0385 151.187 68.0722 151.136 68.1269 151.128ZM61.9386 147.568C62.1787 148.027 62.3767 148.528 62.5284 149.055C62.659 149.501 62.402 149.969 61.9555 150.1C61.8754 150.121 61.7996 150.133 61.7196 150.133C61.3531 150.133 61.0161 149.893 60.9107 149.527C60.7886 149.105 60.6327 148.71 60.4474 148.347C60.1946 147.863 59.8618 147.412 59.4574 147.008C59.1288 146.679 59.1288 146.144 59.4574 145.815C59.786 145.487 60.321 145.487 60.6496 145.815C61.1761 146.338 61.61 146.932 61.9428 147.568H61.9386ZM37.3539 133.995C35.4498 133.965 33.5414 133.961 31.6373 133.936C31.3172 133.932 30.9886 133.919 30.6853 133.835C30.0408 133.658 29.8512 133.106 30.2051 132.542C30.5126 132.044 30.9718 131.703 31.4183 131.354C34.78 128.742 38.1374 126.134 41.4991 123.527C44.4268 121.26 47.3588 118.998 50.2823 116.732C52.0727 115.346 53.8504 113.956 55.6323 112.561C56.6349 111.782 57.6881 112.11 58.1094 113.501C58.1473 113.8 58.2231 114.293 58.2652 114.79C58.7286 120.321 59.1878 125.856 59.6512 131.396C59.8197 133.418 59.9924 135.44 60.1609 137.466C60.1904 137.854 60.2199 138.245 60.1609 138.637C60.0303 139.488 59.5964 139.884 58.7328 139.93C58.3705 139.947 58.0251 139.871 57.6881 139.749C55.0089 138.78 52.3297 137.816 49.6462 136.851C47.8685 136.219 46.095 135.579 44.3131 134.96C43.955 134.833 43.875 134.707 44.0898 134.353C46.1413 131 48.176 127.634 50.2149 124.272C51.2555 122.553 52.3044 120.835 53.328 119.108C53.4713 118.863 53.8462 118.543 53.4839 118.282C53.1722 118.059 52.831 118.337 52.5993 118.589C51.7652 119.516 50.9521 120.456 50.1349 121.399C48.6478 123.105 47.1734 124.811 45.6906 126.517C43.9424 128.531 42.1731 130.536 40.4417 132.567C39.2032 134.02 39.2242 134.029 37.3454 133.999L37.3539 133.995ZM57.9998 144.931C57.8819 145.28 57.5533 145.5 57.2037 145.5C57.1152 145.5 57.0183 145.483 56.9298 145.453C56.1758 145.192 55.4091 145.036 54.6297 145.066L53.9599 145.099C53.4881 145.12 53.0879 144.796 53.05 144.333C53.0121 143.869 53.3533 143.465 53.8167 143.423L54.2548 143.393C54.3728 143.385 54.4907 143.381 54.6424 143.385C55.5987 143.385 56.5549 143.549 57.4775 143.865C57.9198 144.017 58.1515 144.497 57.9998 144.935V144.931ZM51.0448 145.942C50.1307 146.393 49.2797 146.991 48.5088 147.724C48.3445 147.88 48.1381 147.955 47.9275 147.955C47.7042 147.955 47.4852 147.867 47.3167 147.694C46.9965 147.357 47.0091 146.826 47.3462 146.502C48.2392 145.651 49.2334 144.952 50.2992 144.429C50.7204 144.223 51.2218 144.396 51.424 144.813C51.6304 145.23 51.4577 145.735 51.0406 145.938L51.0448 145.942ZM46.5163 150.175C45.9391 151.073 45.4673 152.029 45.1093 153.015C44.9871 153.36 44.6627 153.571 44.3173 153.571C44.2204 153.571 44.1235 153.554 44.0308 153.52C43.5927 153.364 43.3652 152.88 43.5253 152.442C43.9255 151.334 44.4563 150.264 45.0966 149.261C45.3494 148.87 45.8675 148.76 46.2593 149.009C46.6511 149.261 46.7648 149.779 46.5121 150.171L46.5163 150.175ZM41.3011 139.585C41.3011 139.585 41.0862 140.908 40.9935 142.841C40.9725 143.292 40.6018 143.642 40.1552 143.642C40.1426 143.642 40.13 143.642 40.1131 143.642C39.6497 143.621 39.2916 143.225 39.3127 142.761C39.4096 140.722 39.6287 139.37 39.6413 139.315C39.7171 138.856 40.151 138.544 40.606 138.62C41.0652 138.696 41.3769 139.13 41.3011 139.585ZM39.6244 149.649C39.4559 148.562 39.3464 147.404 39.2959 146.203C39.279 145.74 39.6371 145.348 40.1047 145.327C40.5259 145.323 40.9598 145.668 40.9809 146.136C41.0272 147.273 41.1326 148.368 41.2884 149.396C41.36 149.855 41.0441 150.285 40.5849 150.357C40.5428 150.365 40.4965 150.365 40.4543 150.365C40.0457 150.365 39.6876 150.066 39.6244 149.653V149.649ZM42.5606 159.405C42.5396 159.022 42.5269 158.643 42.5269 158.259C42.5269 157.75 42.548 157.236 42.5901 156.726C42.2826 156.756 41.9751 156.591 41.8108 156.305C41.2547 155.34 40.7829 154.245 40.408 153.048C40.269 152.606 40.5133 152.134 40.9598 151.995C41.4064 151.848 41.8782 152.101 42.013 152.547C42.3205 153.529 42.7039 154.434 43.142 155.239C43.2852 155.167 43.4579 155.13 43.6264 155.159C44.0856 155.218 44.41 155.643 44.3468 156.103C44.2752 156.654 44.2288 157.215 44.212 157.775C44.5195 157.611 44.9113 157.649 45.1809 157.897C45.8465 158.508 46.5963 159.014 47.4093 159.397L47.7632 159.553C48.1887 159.738 48.3867 160.235 48.2013 160.661C48.0623 160.977 47.7506 161.166 47.4304 161.166C47.3167 161.166 47.2071 161.145 47.0934 161.099L46.6974 160.922C45.8043 160.505 44.9787 159.961 44.2372 159.313C44.2583 159.772 43.9087 160.168 43.4453 160.193C42.9735 160.239 42.5817 159.864 42.5564 159.401L42.5606 159.405ZM45.2272 166.668C45.1219 166.71 45.0166 166.727 44.9113 166.727C44.5785 166.727 44.2625 166.529 44.1319 166.2C43.6938 165.109 43.3357 163.989 43.0746 162.872C42.9693 162.422 43.2473 161.967 43.7023 161.861C44.1656 161.743 44.608 162.038 44.7133 162.489C44.9576 163.521 45.2862 164.562 45.6948 165.573C45.8675 166.002 45.6569 166.495 45.2272 166.668ZM48.7532 172.384C48.6015 172.502 48.4204 172.557 48.2392 172.557C47.9865 172.557 47.7379 172.443 47.5736 172.228C46.8659 171.306 46.2172 170.333 45.6485 169.33C45.4168 168.926 45.56 168.412 45.9644 168.18C46.3604 167.957 46.8785 168.092 47.1145 168.496C47.6495 169.431 48.2519 170.345 48.9132 171.205C49.1955 171.576 49.1281 172.102 48.7574 172.384H48.7532ZM53.7072 176.917C53.5429 177.14 53.2859 177.258 53.0332 177.258C52.8605 177.258 52.6835 177.204 52.5319 177.094C51.5882 176.395 50.6994 175.636 49.8821 174.84C49.5493 174.516 49.5451 173.981 49.8695 173.648C50.1939 173.315 50.7289 173.311 51.0617 173.635C51.8242 174.377 52.654 175.089 53.5345 175.742C53.9094 176.02 53.9852 176.546 53.7072 176.917ZM54.1116 162.181C53.6019 162.24 53.0332 162.24 52.5866 162.266C51.9084 162.266 51.2133 162.211 50.5267 162.101C50.0675 162.026 49.7558 161.596 49.8274 161.137C49.899 160.678 50.3413 160.366 50.7921 160.437C51.4029 160.534 52.0221 160.589 52.6203 160.581C53.0542 160.581 53.4881 160.555 53.9178 160.505C54.3854 160.458 54.7983 160.783 54.853 161.242C54.9036 161.705 54.575 162.122 54.1158 162.177L54.1116 162.181ZM59.6385 180.085C59.4995 180.401 59.192 180.591 58.8676 180.591C58.7539 180.591 58.6401 180.569 58.5306 180.519C57.4564 180.051 56.4159 179.529 55.4428 178.977C55.0384 178.75 54.8951 178.236 55.1268 177.831C55.3543 177.427 55.8683 177.284 56.2727 177.515C57.1994 178.038 58.1852 178.535 59.2046 178.977C59.6301 179.162 59.8239 179.66 59.6385 180.085ZM60.6496 159.355L60.3083 159.633C59.4658 160.29 58.5517 160.833 57.587 161.25C57.4775 161.297 57.3637 161.318 57.2542 161.318C56.9298 161.318 56.6181 161.128 56.4833 160.808C56.2979 160.383 56.4959 159.886 56.9214 159.7C57.7513 159.342 58.5433 158.87 59.272 158.302L59.5669 158.061C59.9208 157.762 60.4516 157.809 60.7507 158.163C61.0498 158.516 61.0034 159.047 60.6496 159.346V159.355ZM61.1256 155.74C61.2815 155.155 61.3573 154.472 61.3573 153.596C61.3573 153.343 61.3489 153.095 61.3446 152.846L62.1787 152.615L63.0213 152.594L62.1872 152.825L63.0297 152.804C63.0381 153.065 63.0423 153.331 63.0423 153.6C63.0423 154.628 62.9539 155.445 62.7559 156.178C62.6548 156.553 62.3135 156.802 61.9428 156.802C61.8712 156.802 61.7996 156.794 61.7238 156.772C61.273 156.654 61.0076 156.191 61.1256 155.74ZM66.0543 182.111C65.9575 182.495 65.6162 182.747 65.2371 182.747C65.1697 182.747 65.0981 182.739 65.0307 182.722C63.8933 182.436 62.7854 182.107 61.7406 181.757C61.2983 181.61 61.0624 181.134 61.2098 180.692C61.3615 180.249 61.8375 180.009 62.2756 180.161C63.2824 180.498 64.3482 180.814 65.4435 181.092C65.8943 181.206 66.1681 181.665 66.0501 182.115L66.0543 182.111ZM72.685 183.287C72.626 183.708 72.2679 184.015 71.8551 184.015C71.8172 184.015 71.7793 184.015 71.7371 184.007C70.6208 183.855 69.496 183.674 68.3713 183.459C67.9163 183.371 67.613 182.933 67.7015 182.478C67.7899 182.019 68.2365 181.724 68.683 181.808C69.7783 182.014 70.8778 182.191 71.9646 182.339C72.4238 182.402 72.7482 182.827 72.685 183.287ZM78.5573 184.656C78.5573 184.656 78.5279 184.656 78.5152 184.656C77.361 184.597 76.2236 184.504 75.1199 184.399C74.6565 184.352 74.3195 183.94 74.3616 183.476C74.4079 183.013 74.8292 182.697 75.2842 182.718C76.3626 182.823 77.4747 182.912 78.6037 182.971C79.0671 182.992 79.4251 183.388 79.3999 183.855C79.3788 184.306 79.0039 184.656 78.5616 184.656H78.5573ZM80.4994 157.649L76.5353 160.18C76.489 160.21 76.43 160.197 76.4005 160.151L75.8655 159.313C75.836 159.266 75.8487 159.207 75.895 159.178L79.859 156.646C79.9054 156.617 79.9644 156.629 79.9939 156.676L80.5289 157.514C80.5583 157.56 80.5457 157.619 80.4994 157.649ZM85.3607 184.559C84.2739 184.66 83.1196 184.719 81.9274 184.732H81.919C81.4598 184.732 81.0807 184.361 81.0765 183.897C81.0723 183.434 81.443 183.051 81.9106 183.046C83.0564 183.034 84.1643 182.979 85.2006 182.882C85.6345 182.861 86.0726 183.177 86.119 183.64C86.1611 184.104 85.8241 184.512 85.3607 184.559ZM92.1388 183.11C91.0941 183.489 89.9651 183.805 88.7813 184.053C88.7224 184.066 88.6676 184.07 88.6086 184.07C88.2211 184.07 87.8672 183.796 87.7872 183.4C87.6903 182.945 87.9852 182.499 88.4401 182.406C89.5396 182.179 90.5928 181.88 91.5617 181.53C92.004 181.37 92.4842 181.597 92.6401 182.031C92.8002 182.469 92.5727 182.95 92.1388 183.11ZM98.1628 179.499C97.3119 180.296 96.3556 181.008 95.3235 181.618C95.1887 181.698 95.0413 181.736 94.8981 181.736C94.6116 181.736 94.3293 181.589 94.1735 181.323C93.9376 180.923 94.0682 180.409 94.4726 180.169C95.3994 179.622 96.2545 178.981 97.017 178.269C97.3582 177.953 97.889 177.97 98.2092 178.307C98.5251 178.649 98.5082 179.179 98.1712 179.499H98.1628ZM105.088 171.55C105.088 172.153 104.604 172.637 104.001 172.637H100.796V172.709C100.796 173.197 100.404 173.589 99.9153 173.589H97.8637C97.3751 173.589 96.9833 173.197 96.9833 172.709V172.637H93.7775C93.1751 172.637 92.6907 172.153 92.6907 171.55V171.34C92.6907 170.737 93.1751 170.253 93.7775 170.253H104.001C104.604 170.253 105.088 170.737 105.088 171.34V171.55ZM106.04 168.387C106.04 168.496 105.952 168.585 105.842 168.585H91.9324C91.8228 168.585 91.7344 168.496 91.7344 168.387V166.398C91.7344 166.289 91.8228 166.2 91.9324 166.2H105.842C105.952 166.2 106.04 166.289 106.04 166.398V168.387ZM106.516 164.334C106.516 164.444 106.428 164.532 106.318 164.532H91.4521C91.3426 164.532 91.2541 164.444 91.2541 164.334V162.346C91.2541 162.236 91.3426 162.148 91.4521 162.148H106.318C106.428 162.148 106.516 162.236 106.516 162.346V164.334ZM117.89 151.165C117.579 152.244 117.174 153.284 116.686 154.279C115.536 156.633 113.922 158.723 111.963 160.425L110.923 159.915L108.538 158.748L103.294 156.174L99.1191 154.127L94.9444 156.174L89.6997 158.748L87.3154 159.915L86.2748 160.425C84.316 158.719 82.7068 156.629 81.5525 154.279C81.0639 153.289 80.6594 152.244 80.3477 151.165C79.838 149.426 79.5642 147.585 79.5642 145.681C79.5642 139.716 82.235 134.374 86.4476 130.789C86.7298 130.545 87.0205 130.313 87.3154 130.09V151.448L89.6997 150.281L94.9444 147.707L99.1191 145.66L103.294 147.707L108.538 150.281L110.923 151.448V130.09C111.218 130.313 111.508 130.545 111.791 130.789C116.003 134.374 118.674 139.716 118.674 145.681C118.674 147.585 118.4 149.426 117.89 151.165ZM121.526 156.954L121.029 157.813C121.004 157.859 120.94 157.876 120.894 157.851L118.586 156.52C118.539 156.494 118.522 156.431 118.548 156.385L119.045 155.526C119.07 155.479 119.133 155.462 119.18 155.488L121.488 156.819C121.534 156.844 121.551 156.907 121.526 156.954ZM128.401 149.801C128.397 149.855 128.346 149.893 128.291 149.889L121.041 149.169C120.987 149.164 120.949 149.114 120.953 149.059L121.05 148.069C121.054 148.014 121.105 147.977 121.159 147.981L128.409 148.701C128.464 148.705 128.502 148.756 128.498 148.811L128.401 149.801Z" fill="url(#paint5_linear_38_3513)"/>
</g>
<defs>
<linearGradient id="paint0_linear_38_3513" x1="140.462" y1="140.933" x2="160.985" y2="140.933" gradientUnits="userSpaceOnUse">
<stop stop-color="#FBD700"/>
<stop offset="0.99" stop-color="#FFB600"/>
</linearGradient>
<linearGradient id="paint1_linear_38_3513" x1="-0.00354185" y1="140.625" x2="20.0822" y2="140.625" gradientUnits="userSpaceOnUse">
<stop stop-color="#FBD700"/>
<stop offset="0.99" stop-color="#FFB600"/>
</linearGradient>
<linearGradient id="paint2_linear_38_3513" x1="24.3495" y1="63.8045" x2="134.846" y2="63.8045" gradientUnits="userSpaceOnUse">
<stop stop-color="#FBD700"/>
<stop offset="0.99" stop-color="#FFB600"/>
</linearGradient>
<linearGradient id="paint3_linear_38_3513" x1="70.7262" y1="11.6355" x2="87.9263" y2="11.6355" gradientUnits="userSpaceOnUse">
<stop stop-color="#FBD700"/>
<stop offset="0.99" stop-color="#FFB600"/>
</linearGradient>
<linearGradient id="paint4_linear_38_3513" x1="64.8538" y1="65.1398" x2="94.342" y2="65.1398" gradientUnits="userSpaceOnUse">
<stop stop-color="#FBD700"/>
<stop offset="0.99" stop-color="#FFB600"/>
</linearGradient>
<linearGradient id="paint5_linear_38_3513" x1="24.2611" y1="152.842" x2="134.939" y2="152.842" gradientUnits="userSpaceOnUse">
<stop stop-color="#FBD700"/>
<stop offset="0.99" stop-color="#FFB600"/>
</linearGradient>
</defs>
</svg>
