<svg width="196" height="200" viewBox="0 0 196 200" fill="none" xmlns="http://www.w3.org/2000/svg">
<g id="Group 15">
<path id="Vector" d="M97.9357 23.9672C58.4338 23.9672 26.4087 55.9923 26.4087 95.4942C26.4087 134.996 58.4338 167.021 97.9357 167.021C137.438 167.021 169.463 134.996 169.463 95.4942C169.463 55.9923 137.438 23.9672 97.9357 23.9672ZM132.598 72.8319L144.252 65.0049C144.53 64.7939 144.914 64.8825 145.108 65.161L145.598 65.8783C145.792 66.1737 145.72 66.5576 145.425 66.7517L133.771 74.5787C133.493 74.7728 133.109 74.7011 132.914 74.4057L132.425 73.6884C132.231 73.4099 132.303 73.026 132.598 72.8319ZM142.518 86.5111L138.8 87.431C138.463 87.5153 138.125 87.3086 138.041 86.971L137.834 86.1356C137.75 85.798 137.957 85.4563 138.294 85.3761L142.011 84.4563C142.349 84.3719 142.687 84.5786 142.771 84.9162L142.978 85.7516C143.062 86.0892 142.855 86.4267 142.518 86.5111ZM121.906 62.718L124.159 59.6252C124.353 59.3467 124.754 59.275 125.033 59.486L125.733 59.9923C126.012 60.2032 126.066 60.5872 125.872 60.8657L123.619 63.9754C123.408 64.2539 123.024 64.3087 122.746 64.1146L122.045 63.6083C121.767 63.3973 121.695 62.9965 121.906 62.718ZM110.168 56.8657L113.678 46.8531C113.801 46.5198 114.151 46.3468 114.48 46.4691L115.303 46.7476C115.619 46.8531 115.792 47.2202 115.687 47.5493L112.176 57.5619C112.054 57.8952 111.704 58.0682 111.374 57.9459L110.552 57.6674C110.235 57.545 110.062 57.1948 110.168 56.8657ZM94.8935 50.5029L95.7543 50.4607C96.1003 50.4438 96.3957 50.7096 96.4125 51.0556L96.653 56.0303C96.6699 56.3763 96.4041 56.6716 96.0581 56.6885L95.1974 56.7307C94.8514 56.7476 94.556 56.4818 94.5391 56.1358L94.2986 51.1611C94.2817 50.8151 94.5476 50.5198 94.8935 50.5029ZM88.8514 62.5577L92.0117 64.4986L99.4378 69.0218L106.847 64.4986L110.007 62.5577L110.425 62.3129L116.155 65.1273V97.2579L106.843 92.6799V77.4437L99.4336 81.4774L92.0075 77.4437V92.6799L82.6953 97.2579V65.1273L88.4252 62.3129L88.843 62.5577H88.8514ZM80.8472 46.1232L81.6573 45.832C81.9822 45.7139 82.3451 45.8869 82.459 46.2118L86.7164 58.1231C86.8345 58.448 86.6615 58.8108 86.3366 58.9248L85.5265 59.2159C85.2016 59.334 84.8388 59.1611 84.7248 58.8362L80.4675 46.9248C80.3493 46.6 80.5223 46.2371 80.8472 46.1232ZM65.649 64.2454L66.2566 63.6378C66.5013 63.3931 66.8979 63.3931 67.1426 63.6378L71.2692 67.7644C71.5139 68.0091 71.5139 68.4057 71.2692 68.6505L70.6616 69.2581C70.4169 69.5028 70.0203 69.5028 69.7756 69.2581L65.649 65.1315C65.4043 64.8868 65.4043 64.4901 65.649 64.2454ZM50.514 68.6125L50.9444 67.8657C51.1174 67.5661 51.5014 67.4606 51.801 67.6378L65.2186 75.3846C65.5182 75.5576 65.6237 75.9416 65.4465 76.2411L65.0161 76.988C64.8431 77.2875 64.4591 77.393 64.1595 77.2158L50.7419 69.469C50.4423 69.296 50.3368 68.9121 50.514 68.6125ZM60.4676 93.4098V94.2706C60.4676 94.6166 60.1849 94.8993 59.8389 94.8993H53.5858C53.2398 94.8993 52.9571 94.6166 52.9571 94.2706V93.4098C52.9571 93.0638 53.2398 92.7811 53.5858 92.7811H59.8389C60.1849 92.7811 60.4676 93.0638 60.4676 93.4098ZM45.2103 107.321C44.8685 107.384 44.5394 107.161 44.4761 106.819L44.3158 105.971C44.2525 105.629 44.4761 105.3 44.8179 105.237L60.071 102.346C60.4127 102.283 60.7418 102.507 60.8051 102.849L60.9655 103.697C61.0288 104.038 60.8051 104.368 60.4634 104.431L45.2103 107.321ZM65.9697 117.165L59.6912 121.173C59.4001 121.359 59.0119 121.275 58.822 120.983L58.3579 120.258C58.1722 119.967 58.2566 119.578 58.5478 119.389L64.8262 115.38C65.1173 115.195 65.5055 115.279 65.6954 115.57L66.1595 116.296C66.3452 116.587 66.2608 116.975 65.9697 117.165ZM110.033 141.612C110.033 142.68 109.168 143.545 108.1 143.545H102.408V143.671C102.408 144.54 101.708 145.237 100.843 145.237H97.2016C96.3324 145.237 95.6362 144.536 95.6362 143.671V143.545H89.9442C88.8767 143.545 88.0117 142.68 88.0117 141.612V141.241C88.0117 140.173 88.8767 139.308 89.9442 139.308H108.109C109.176 139.308 110.041 140.173 110.041 141.241V141.612H110.033ZM111.729 135.085C111.729 135.777 111.168 136.342 110.472 136.342H87.5645C86.8725 136.342 86.3071 135.781 86.3071 135.085V133.359C86.3071 132.667 86.8683 132.102 87.5645 132.102H110.472C111.164 132.102 111.729 132.663 111.729 133.359V135.085ZM112.577 127.882C112.577 128.574 112.016 129.14 111.32 129.14H86.7206C86.0286 129.14 85.4632 128.578 85.4632 127.882V126.156C85.4632 125.464 86.0244 124.899 86.7206 124.899H111.32C112.012 124.899 112.577 125.46 112.577 126.156V127.882ZM130.644 110.916C128.602 115.11 125.733 118.815 122.261 121.853L120.408 120.946L116.163 118.865L106.851 114.287L99.4421 110.654L92.0159 114.287L82.7037 118.865L78.459 120.946L76.6236 121.853C73.1468 118.815 70.2819 115.11 68.2397 110.916C67.3663 109.169 66.649 107.317 66.092 105.397C65.1849 102.304 64.6954 99.0385 64.6954 95.6503C64.6954 85.0639 69.4464 75.5745 76.9232 69.199C77.4295 68.7813 77.9358 68.3593 78.459 67.9585V105.903L82.7037 103.823L92.0159 99.2621L99.4421 95.6292L106.851 99.2621L116.163 103.823L120.408 105.903V67.9585C120.931 68.3593 121.438 68.7813 121.944 69.199C129.421 75.5745 134.172 85.0639 134.172 95.6503C134.172 99.0385 133.682 102.308 132.775 105.397C132.235 107.317 131.501 109.169 130.644 110.916ZM139.016 116.068L138.585 116.815C138.412 117.114 138.028 117.22 137.729 117.043L134.412 115.127C134.113 114.954 134.007 114.57 134.184 114.27L134.615 113.524C134.788 113.224 135.172 113.119 135.471 113.296L138.788 115.211C139.087 115.384 139.193 115.768 139.016 116.068ZM150.813 103.081L138.838 101.891C138.492 101.857 138.239 101.549 138.277 101.203L138.362 100.346C138.395 100 138.703 99.7473 139.049 99.7853L151.024 100.975C151.37 101.009 151.623 101.317 151.585 101.663L151.501 102.519C151.467 102.865 151.159 103.119 150.813 103.081Z" fill="url(#paint0_linear_38_3508)"/>
<path id="Vector_2" d="M195.876 98.0891C194.775 133.418 179.838 161.144 150.218 180.764C148.526 181.886 146.703 182.81 144.965 183.869C143.703 184.641 143.184 184.262 143.176 182.861C143.151 179.92 143.079 176.979 143.083 174.038C143.083 172.118 142.509 170.397 141.045 169.194C139.632 168.034 140.193 167.477 141.366 166.734C148.56 162.194 154.893 156.696 160.391 150.173C170.944 137.65 177.264 123.275 179.142 107.064C181.775 84.3339 176.037 63.7728 161.864 45.8067C150.319 31.1781 135.328 21.4861 117.151 17.2372C91.2818 11.1908 67.552 16.2668 46.4593 32.4144C33.8348 42.0768 24.9699 54.6505 19.6872 69.7348C16.3792 79.1778 14.7801 88.874 15.029 98.8317C15.4636 116.135 20.8054 131.81 31.0458 145.815C37.088 154.076 44.455 160.89 53.0288 166.422C54.4044 167.308 55.2145 167.933 53.4423 169.325C51.7166 170.684 51.3917 172.772 51.3622 174.861C51.3326 177.046 51.3664 179.232 51.3411 181.418C51.3326 182.144 51.7377 183.08 50.9951 183.527C50.1597 184.034 49.4297 183.232 48.7588 182.835C44.3411 180.219 40.0627 177.392 36.0838 174.144C26.337 166.186 18.3286 156.747 12.24 145.734C3.69577 130.287 -0.359058 113.73 0.0249062 96.0469C0.396212 79.0133 4.80547 63.1484 13.548 48.5535C28.3918 23.7646 49.9107 7.9377 78.2439 2.14448C104.721 -3.27321 129.615 1.59174 152.138 16.541C171.594 29.4524 184.771 47.3341 191.64 69.7602C194.467 78.9837 195.788 88.4141 195.88 98.0849L195.876 98.0891Z" fill="url(#paint1_linear_38_3508)"/>
<path id="Vector_3" d="M141.235 176.169C141.079 171.363 138.598 169.165 133.742 168.954C132.834 168.903 131.923 168.92 131.033 168.92H97.9949V169.026C86.0119 169.026 74.0246 168.937 62.0415 169.059C56.8179 169.131 54.5817 171.68 54.5648 176.886C54.5648 181.57 54.5817 186.249 54.5479 190.916C54.4973 197.591 56.8348 200 63.4424 200C86.2946 200 109.147 200 131.982 199.983C133.256 199.983 134.552 199.911 135.809 199.705C138.746 199.198 141.066 196.768 141.138 193.781C141.311 187.912 141.417 182.042 141.244 176.169H141.235ZM81.4676 191.962C79.282 192.034 77.1174 192.101 74.9318 192.084C73.8643 192.068 73.6406 191.245 73.6406 190.321C73.6575 188.224 73.6406 186.127 73.6406 184.013H73.6238C73.6238 182.3 73.5731 180.57 73.6406 178.84C73.6575 177.95 73.2736 176.637 74.8305 176.675C76.2102 176.709 75.86 177.933 75.8769 178.755C75.9107 181.743 75.9824 184.764 75.86 187.751C75.7714 189.654 76.5394 190.321 78.3579 190.16C79.3199 190.072 80.3157 190.144 81.2735 190.194C81.8136 190.211 82.3748 190.3 82.4423 190.979C82.4929 191.658 82.0246 191.941 81.4634 191.958L81.4676 191.962ZM89.9233 184.274H89.9064C89.9064 186.371 89.9232 188.485 89.9064 190.599C89.9064 191.317 89.8178 192.013 88.8937 192.068C87.7925 192.139 87.7039 191.35 87.7039 190.566V178.11C87.7039 177.431 87.7756 176.696 88.7165 176.642C89.784 176.591 89.9064 177.359 89.9233 178.161V184.274ZM107.219 178.089C105.733 182.35 104.231 186.616 102.746 190.878C102.43 191.802 101.733 192.084 100.826 192.084C99.8641 192.101 99.5519 191.456 99.2903 190.705C97.9106 186.739 96.4928 182.772 95.1679 178.772C94.9401 178.11 94.1004 177.131 95.3241 176.675C96.5983 176.22 97.0034 177.287 97.3156 178.249C98.362 181.393 99.3958 184.54 100.442 187.667C100.565 188.017 100.704 188.346 101.071 189.346C102.362 185.519 103.43 182.342 104.497 179.144C104.725 178.515 104.936 177.869 105.231 177.258C105.527 176.612 106.155 176.507 106.767 176.646C107.64 176.874 107.413 177.536 107.223 178.097L107.219 178.089ZM119.501 192.152C117.771 192.152 116.024 192.063 114.294 192.063C113.088 192.047 112.514 191.523 112.531 190.283C112.548 186.283 112.548 182.3 112.531 178.3C112.514 177.059 113.092 176.519 114.311 176.553C115.218 176.587 116.109 176.553 117.02 176.553C117.932 176.553 118.839 176.536 119.729 176.57C120.358 176.587 121.02 176.658 120.97 177.532C120.919 178.232 120.341 178.3 119.801 178.317C118.666 178.35 117.548 178.367 116.413 178.35C114.699 178.3 114.754 179.485 114.771 180.658C114.788 181.777 114.598 183.034 116.362 183C117.341 182.966 118.32 183 119.299 183.034C119.927 183.051 120.556 183.139 120.59 183.958C120.607 184.781 119.995 184.92 119.366 184.954C118.843 184.971 118.299 184.971 117.775 184.971C114.91 184.987 113.932 186.439 114.822 189.232C115.1 190.089 115.695 190.177 116.396 190.177C117.442 190.211 118.51 190.177 119.556 190.211C120.235 190.228 121.041 190.194 121.007 191.19C120.974 192.169 120.151 192.152 119.505 192.152H119.501Z" fill="url(#paint2_linear_38_3508)"/>
</g>
<defs>
<linearGradient id="paint0_linear_38_3508" x1="26.4087" y1="95.49" x2="169.463" y2="95.49" gradientUnits="userSpaceOnUse">
<stop stop-color="#FBD700"/>
<stop offset="0.99" stop-color="#FFB600"/>
</linearGradient>
<linearGradient id="paint1_linear_38_3508" x1="-0.00462958" y1="92.1313" x2="195.876" y2="92.1313" gradientUnits="userSpaceOnUse">
<stop stop-color="#FBD700"/>
<stop offset="0.99" stop-color="#FFB600"/>
</linearGradient>
<linearGradient id="paint2_linear_38_3508" x1="54.5437" y1="184.46" x2="141.328" y2="184.46" gradientUnits="userSpaceOnUse">
<stop stop-color="#FBD700"/>
<stop offset="0.99" stop-color="#FFB600"/>
</linearGradient>
</defs>
</svg>
