<svg width="200" height="186" viewBox="0 0 200 186" fill="none" xmlns="http://www.w3.org/2000/svg">
<g id="Group 17">
<path id="Vector" d="M117.464 114.906C114.528 117.593 111.309 119.977 107.854 122.006C110.364 120.162 112.866 118.315 115.367 116.463C116.068 115.939 116.764 115.429 117.464 114.906Z" fill="url(#paint0_linear_38_3501)"/>
<path id="Vector_2" d="M78.9094 15.4972C47.3284 15.4972 21.7253 41.1003 21.7253 72.6812C21.7253 104.262 47.3284 129.865 78.9094 129.865C80.1581 129.865 81.4026 129.827 82.6302 129.739C89.899 124.33 97.1636 118.926 104.441 113.518C113.777 106.595 123.121 99.6723 132.465 92.7495C134.811 86.5058 136.089 79.7391 136.089 72.6812C136.089 41.1003 110.486 15.4972 78.9052 15.4972H78.9094ZM107.714 53.8491L117.514 47.2638C117.725 47.1203 118.012 47.1794 118.151 47.3903L118.62 48.0906C118.763 48.3016 118.704 48.5884 118.493 48.7276L108.693 55.313C108.482 55.4564 108.195 55.3973 108.056 55.1864L107.588 54.4861C107.444 54.2752 107.504 53.9883 107.714 53.8491ZM116.426 64.6362C116.485 64.8851 116.337 65.134 116.089 65.1931L112.87 65.9904C112.621 66.0495 112.372 65.9018 112.313 65.6529L112.11 64.8345C112.051 64.5856 112.199 64.3367 112.448 64.2776L115.667 63.4803C115.916 63.4213 116.164 63.5689 116.224 63.8178L116.426 64.6362ZM98.8257 45.454L100.775 42.7709C100.922 42.5642 101.213 42.5178 101.416 42.6696L102.099 43.1632C102.306 43.3109 102.353 43.602 102.201 43.8045L100.252 46.4875C100.104 46.6942 99.8129 46.7407 99.6104 46.5888L98.927 46.0952C98.7203 45.9475 98.6738 45.6565 98.8257 45.454ZM92.0421 32.1272C92.1265 31.8867 92.388 31.7602 92.6285 31.8445L93.4216 32.123C93.6621 32.2073 93.7886 32.4689 93.7043 32.7094L90.7385 41.1678C90.6542 41.4083 90.3926 41.5348 90.1521 41.4504L89.359 41.172C89.1186 41.0876 88.992 40.8261 89.0764 40.5856L92.0421 32.1272ZM76.3149 35.2321L77.1544 35.1899C77.4075 35.1773 77.6227 35.3756 77.6353 35.6287L77.8421 39.8937C77.8547 40.1469 77.6564 40.362 77.4033 40.3747L76.5638 40.4169C76.3107 40.4295 76.0955 40.2312 76.0829 39.9781L75.8762 35.7131C75.8635 35.4599 76.0618 35.2448 76.3149 35.2321ZM71.3495 45.2683L73.9862 46.8756L80.1581 50.6429L86.33 46.8756L88.9625 45.2683L89.3126 45.0574L94.0882 47.3988V74.1493L86.33 70.3441V57.6543L80.1581 61.0208L73.9862 57.6543V70.3441L66.2281 74.1493V47.3988L71.0036 45.0574L71.3538 45.2683H71.3495ZM64.625 31.6041L65.4181 31.3214C65.6586 31.237 65.9201 31.3594 66.0087 31.5999L69.5946 41.6361C69.6789 41.8765 69.5566 42.1381 69.3161 42.2267L68.523 42.5093C68.2826 42.5937 68.021 42.4714 67.9324 42.2309L64.3465 32.1947C64.2622 31.9542 64.3845 31.6927 64.625 31.6041ZM51.9859 46.7153L52.5807 46.1205C52.7621 45.9391 53.0532 45.9391 53.2304 46.1205L56.7529 49.6431C56.9343 49.8245 56.9343 50.1156 56.7529 50.2928L56.1581 50.8876C55.9767 51.069 55.6856 51.069 55.5084 50.8876L51.9859 47.365C51.8044 47.1836 51.8044 46.8925 51.9859 46.7153ZM39.4016 50.3603L39.8234 49.6304C39.95 49.4111 40.2326 49.3351 40.452 49.4617L51.7327 55.9753C51.9521 56.1019 52.028 56.3845 51.9015 56.6039L51.4796 57.3337C51.353 57.5531 51.0704 57.629 50.851 57.5025L39.5703 50.9888C39.3509 50.8623 39.275 50.5796 39.4016 50.3603ZM47.7166 70.8883V71.732C47.7166 71.9851 47.5098 72.1919 47.2567 72.1919H41.9243C41.6712 72.1919 41.4645 71.9851 41.4645 71.732V70.8883C41.4645 70.6352 41.6712 70.4285 41.9243 70.4285H47.2567C47.5098 70.4285 47.7166 70.6352 47.7166 70.8883ZM34.9509 82.5445C34.702 82.5909 34.4615 82.4264 34.4109 82.1775L34.2548 81.3506C34.2084 81.1017 34.3729 80.8612 34.6218 80.8106L47.4466 78.3807C47.6955 78.3342 47.9359 78.4988 47.9866 78.7477L48.1426 79.5745C48.189 79.8234 48.0245 80.0639 47.7756 80.1145L34.9509 82.5445ZM52.3487 90.6949L47.0163 94.0994C46.8011 94.2344 46.5185 94.1754 46.3792 93.9602L45.9278 93.2515C45.7928 93.0363 45.8519 92.7537 46.0671 92.6144L51.3995 89.21C51.6146 89.075 51.8973 89.134 52.0365 89.3492L52.4879 90.0579C52.6229 90.2731 52.5638 90.5557 52.3487 90.6949ZM88.9794 111.084C88.9794 111.974 88.258 112.691 87.372 112.691H82.6302V112.797C82.6302 113.518 82.0481 114.1 81.3267 114.1H78.2935C77.5721 114.1 76.9899 113.518 76.9899 112.797V112.691H72.2481C71.358 112.691 70.6408 111.97 70.6408 111.084V110.772C70.6408 109.881 71.3622 109.164 72.2481 109.164H87.372C88.2622 109.164 88.9794 109.886 88.9794 110.772V111.084ZM90.3884 105.777C90.3884 106.287 89.9749 106.696 89.4687 106.696H70.1514C69.641 106.696 69.2318 106.283 69.2318 105.777V104.093C69.2318 103.583 69.6452 103.174 70.1514 103.174H89.4687C89.9792 103.174 90.3884 103.587 90.3884 104.093V105.777ZM91.0929 99.782C91.0929 100.292 90.6795 100.702 90.1732 100.702H69.4427C68.9322 100.702 68.523 100.288 68.523 99.782V98.0987C68.523 97.5883 68.9365 97.179 69.4427 97.179H90.1732C90.6837 97.179 91.0929 97.5925 91.0929 98.0987V99.782ZM106.132 85.5397C104.428 89.0201 102.045 92.1082 99.1506 94.631L97.615 93.8758L94.0882 92.1462L86.33 88.3409L80.1581 85.3161L73.9862 88.3409L66.2281 92.1462L62.7013 93.8758L61.1657 94.631C58.2717 92.1082 55.8839 89.0201 54.1838 85.5397C53.4624 84.0716 52.8633 82.5318 52.3993 80.9372C51.6441 78.3638 51.2434 75.6385 51.2434 72.8247C51.2434 64.0034 55.192 56.1019 61.423 50.8032C61.8407 50.4446 62.271 50.1029 62.7055 49.7696V81.359L66.2323 79.6294L73.9904 75.8241L80.1623 72.7994L86.3342 75.8241L94.0924 79.6294L97.6192 81.359V49.7696C98.0579 50.1029 98.4882 50.4446 98.9017 50.8032C105.128 56.1061 109.081 64.0034 109.081 72.8247C109.081 75.6385 108.681 78.3638 107.925 80.9372C107.461 82.5318 106.862 84.0716 106.141 85.5397H106.132ZM113.135 89.7668L112.714 90.4967C112.587 90.716 112.304 90.792 112.085 90.6654L109.216 89.0075C108.997 88.8809 108.921 88.5983 109.048 88.3789L109.469 87.6491C109.596 87.4297 109.879 87.3538 110.098 87.4803L112.967 89.1383C113.186 89.2648 113.262 89.5475 113.135 89.7668ZM123.492 78.6042C123.467 78.8574 123.243 79.043 122.99 79.0177L112.895 78.0136C112.642 77.9883 112.456 77.7647 112.482 77.5116L112.566 76.6721C112.591 76.419 112.815 76.2334 113.068 76.2587L123.163 77.2627C123.416 77.288 123.602 77.5116 123.577 77.7647L123.492 78.6042Z" fill="url(#paint1_linear_38_3501)"/>
<path id="Vector_3" d="M115.367 116.463C112.866 118.315 110.364 120.167 107.854 122.006C111.309 119.977 114.532 117.593 117.464 114.906C116.764 115.429 116.068 115.939 115.367 116.463Z" fill="url(#paint2_linear_38_3501)"/>
<path id="Vector_4" d="M196.252 179.772C195.551 179.793 194.855 179.78 194.163 179.831C193.109 179.899 192.687 179.595 192.687 178.393C192.708 142.53 192.695 106.675 192.678 70.8081C192.678 68.7198 192.885 66.6232 192.657 64.5349C192.4 62.2189 190.902 60.2403 188.658 59.7594C185.595 59.1013 182.444 59.1013 179.381 59.7805C176.723 60.3627 175.335 62.704 175.335 66.0536C175.357 76.5497 175.386 87.0584 175.432 97.5671C175.432 98.3433 175.175 98.5416 174.458 98.5205C173.062 98.4825 171.661 98.491 170.273 98.5205C165.962 98.6302 163.624 101.043 163.624 105.334V178.203C163.624 178.447 163.595 178.696 163.624 178.941C163.692 179.591 163.418 179.797 162.776 179.776C161.587 179.738 160.393 179.696 159.212 179.797C158.149 179.878 157.883 179.464 157.883 178.468C157.912 157.337 157.912 136.202 157.912 115.079C157.912 114.172 157.992 113.265 157.904 112.37C157.617 109.603 155.352 107.426 152.706 107.38C150.492 107.329 148.264 107.3 146.058 107.38C143.843 107.468 142.16 108.493 141.156 110.531C140.485 111.881 140.544 113.328 140.536 114.745C140.515 123.411 140.506 132.067 140.536 140.724C140.536 141.749 140.249 142.104 139.215 142.045C137.739 141.977 136.262 141.994 134.786 142.045C132.187 142.133 129.921 143.766 129.251 146.014C128.947 146.997 128.926 148.035 128.926 149.056C128.934 158.902 128.917 168.753 128.955 178.599C128.955 179.515 128.69 179.869 127.774 179.818C126.749 179.759 125.715 179.738 124.703 179.81C123.433 179.899 123.167 179.359 123.167 178.148C123.218 165.306 123.205 152.465 123.176 139.623C123.176 135.683 120.91 133.476 116.962 133.438C115.16 133.417 113.346 133.417 111.545 133.46C108.119 133.527 105.774 135.894 105.765 139.328C105.736 143.799 105.757 148.267 105.757 152.739C105.757 155.574 105.736 158.4 105.786 161.235C105.808 162.269 105.432 162.585 104.42 162.505C103.112 162.395 101.791 162.395 100.479 162.438C96.2945 162.556 94.1978 164.762 94.1978 168.955C94.2062 172.246 94.1978 175.524 94.2273 178.802C94.2357 179.51 94.1303 179.806 93.3034 179.806C83.9886 179.776 74.6738 179.806 65.3547 179.814H63.0682C63.0471 179.675 63.0303 179.548 63.0092 179.409C63.7095 178.937 64.4266 178.494 65.1058 177.992C76.0364 170.086 86.9585 162.168 97.8976 154.27C100.488 152.389 100.703 151.304 98.8636 148.697C96.0076 144.639 93.1431 140.593 90.2364 136.564C89.6838 135.805 89.7133 135.345 90.5022 134.772C96.2944 130.528 102.074 126.275 107.854 121.997C110.364 120.154 112.865 118.306 115.367 116.454C116.067 115.931 116.763 115.421 117.464 114.897C123.353 110.535 129.221 106.135 135.11 101.782C143.126 95.8543 151.162 89.965 159.169 84.0378C161.258 82.5022 161.456 80.916 159.878 78.8995C157.495 75.8156 155.094 72.7529 152.66 69.7112C152.167 69.0995 152.078 68.7873 152.808 68.2853C162.076 61.932 171.332 55.5618 180.579 49.1832C184.123 46.7406 187.671 44.298 191.193 41.8385C192.856 40.6784 193.201 39.1976 192.278 37.5861C191.598 36.4048 190.426 36.3078 189.282 36.2951C186.899 36.2572 184.528 36.3036 182.144 36.3036C179.023 36.2952 175.909 36.2361 172.787 36.2825C170.661 36.312 169.459 37.5312 169.539 39.4423C169.598 41.0876 170.847 42.0705 172.867 42.0705C174.926 42.0621 176.972 42.0494 179.023 42.0494C179.297 42.0494 179.664 41.9608 179.769 42.3068C179.866 42.6527 179.533 42.7877 179.305 42.948C178.086 43.7833 176.854 44.5933 175.643 45.4286C166.13 51.997 156.609 58.5571 147.096 65.134C144.379 67.0155 144.202 68.395 146.231 71.0148C146.357 71.1835 146.497 71.3312 146.615 71.4957C148.792 74.2632 150.956 77.0601 153.154 79.8065C153.715 80.5068 153.597 80.9287 152.909 81.3801C151.913 82.0382 150.947 82.7385 149.994 83.4388C143.366 88.3535 136.73 93.2683 130.103 98.1788C122.138 104.076 114.182 109.987 106.213 115.885C100.302 120.276 94.396 124.659 88.4984 129.051C87.1315 130.063 85.7604 131.089 84.3936 132.105C82.2969 133.67 82.048 134.881 83.5161 137.007C86.4523 141.26 89.4265 145.474 92.4386 149.672C92.9195 150.351 92.8604 150.638 92.2108 151.098C79.3481 160.396 66.498 169.698 53.6564 179.025C52.9181 179.557 52.1798 179.814 51.2728 179.814C36.3851 179.806 21.4848 179.806 6.59291 179.793C5.44122 179.793 4.28953 179.705 3.14627 179.772C0.644598 179.911 -0.675848 181.97 0.349289 183.978C1.2563 185.741 2.85939 185.552 4.41608 185.552C27.5977 185.552 50.7792 185.531 73.9608 185.531C102.31 185.531 130.664 185.531 159.013 185.539C171.48 185.539 183.958 185.56 196.433 185.56C198.61 185.56 200.065 184.311 199.998 182.535C199.93 180.903 198.306 179.7 196.256 179.759L196.252 179.772ZM104.77 179.793C103.551 179.726 102.319 179.764 101.087 179.793C100.311 179.814 100.003 179.519 100.003 178.709C100.032 175.558 100.011 172.406 99.9942 169.263C99.9858 168.576 100.23 168.31 100.918 168.327C102.188 168.348 103.458 168.348 104.728 168.289C105.563 168.251 105.782 168.635 105.761 169.39C105.732 170.985 105.753 172.579 105.753 174.174H105.761C105.761 175.731 105.74 177.287 105.77 178.84C105.791 179.586 105.533 179.823 104.766 179.785L104.77 179.793ZM117.354 178.709C117.354 179.586 117.244 179.949 116.223 179.831C114.975 179.683 113.692 179.802 112.422 179.81C111.811 179.818 111.456 179.713 111.456 178.924C111.524 171.056 111.545 163.188 111.566 155.321C111.574 150.368 111.604 145.403 111.566 140.45C111.558 139.467 111.84 139.142 112.815 139.218C113.958 139.307 115.118 139.328 116.261 139.226C117.325 139.129 117.354 139.678 117.354 140.467C117.333 146.866 117.333 153.258 117.333 159.649C117.333 166.04 117.325 172.351 117.354 178.705V178.709ZM140.515 163.986C140.633 168.989 140.388 173.992 140.603 178.992C140.633 179.633 140.375 179.856 139.726 179.827C138.544 179.768 137.342 179.709 136.161 179.818C134.971 179.928 134.722 179.435 134.722 178.342C134.76 168.998 134.752 159.641 134.752 150.288C134.752 147.955 134.743 147.934 137.085 147.972C138.177 148.001 139.527 147.499 140.295 148.238C141.033 148.946 140.481 150.267 140.493 151.309C140.544 155.532 140.515 159.759 140.515 163.982V163.986ZM151.12 179.848C150.019 179.78 148.905 179.78 147.8 179.827C146.699 179.878 146.294 179.473 146.294 178.321C146.332 164.623 146.332 150.925 146.332 137.227C146.332 129.646 146.341 122.052 146.303 114.471C146.294 113.417 146.636 113.104 147.64 113.172C148.821 113.239 150.015 113.21 151.205 113.172C151.892 113.151 152.188 113.446 152.188 114.096C152.196 114.961 152.196 115.817 152.196 116.686V146.584H152.204C152.204 157.287 152.196 167.994 152.213 178.696C152.213 179.515 152.015 179.907 151.112 179.848H151.12ZM175.344 142.42H175.335C175.335 154.553 175.335 166.694 175.357 178.836C175.365 179.574 175.112 179.759 174.449 179.759C173.1 179.759 171.75 179.789 170.391 179.818C169.822 179.84 169.467 179.7 169.497 179C169.843 167.93 169.615 156.852 169.644 145.786C169.682 132.7 169.653 119.622 169.644 106.536C169.644 105.13 170.357 104.436 171.783 104.456C172.484 104.465 173.18 104.574 173.872 104.515C175.12 104.397 175.378 104.988 175.369 106.11C175.34 118.213 175.348 130.317 175.348 142.416L175.344 142.42ZM184.334 179.81C182.278 179.796 181.25 178.775 181.25 176.747V122.596C181.25 103.975 181.258 85.3456 181.229 66.7202C181.22 65.636 181.465 65.2732 182.566 65.3829C183.579 65.4799 184.616 65.3829 185.637 65.3154C186.582 65.2563 186.958 65.6107 186.928 66.5852C186.89 68.5933 186.949 70.6014 186.949 72.6137C186.958 107.485 186.958 142.352 186.958 177.224C186.958 179.823 186.949 179.823 184.33 179.814L184.334 179.81Z" fill="url(#paint3_linear_38_3501)"/>
<path id="Vector_5" d="M7.23844 72.7319C7.39453 54.3427 13.4483 38.1894 25.6403 24.3564C34.8327 13.9278 46.1683 6.83626 59.4487 2.92133C70.645 -0.381886 82.0439 -0.879687 93.506 1.40683C111.963 5.08551 126.791 14.5775 138.059 29.6002C143.805 37.2613 147.682 45.8505 150.104 55.1105C150.268 55.7306 150.163 56.1483 149.661 56.4858C148.37 57.3548 147.066 58.2112 145.78 59.0845C145.202 59.4768 144.995 59.3671 144.839 58.6457C141.687 44.0533 134.427 31.8909 123.163 22.0994C113.574 13.7633 102.496 8.54059 89.9581 6.68438C73.3872 4.23333 57.9173 7.40999 43.751 16.4801C32.002 24.002 23.5056 34.2956 18.0889 47.1077C15.4902 53.25 13.9124 59.6835 13.3597 66.3532C11.8874 84.1012 16.5111 100.069 27.6062 114.007C37.3386 126.233 49.9187 134.105 65.1861 137.598C68.9871 138.467 72.8472 138.986 76.7494 139.083C77.5679 139.104 78.1289 139.387 78.5803 140.074C79.4831 141.441 80.4576 142.762 81.3984 144.107C81.5545 144.331 81.8372 144.55 81.6473 144.863C81.5039 145.103 81.2128 145.031 80.9723 145.036C68.2994 145.196 56.2889 142.479 45.2191 136.273C26.4376 125.748 14.3089 110.016 9.12841 89.0665C7.80797 83.7299 7.11189 78.2752 7.24267 72.7234L7.23844 72.7319Z" fill="url(#paint4_linear_38_3501)"/>
</g>
<defs>
<linearGradient id="paint0_linear_38_3501" x1="107.854" y1="118.458" x2="117.464" y2="118.458" gradientUnits="userSpaceOnUse">
<stop stop-color="#FBD700"/>
<stop offset="0.99" stop-color="#FFB600"/>
</linearGradient>
<linearGradient id="paint1_linear_38_3501" x1="21.7253" y1="72.6812" x2="136.093" y2="72.6812" gradientUnits="userSpaceOnUse">
<stop stop-color="#FBD700"/>
<stop offset="0.99" stop-color="#FFB600"/>
</linearGradient>
<linearGradient id="paint2_linear_38_3501" x1="107.854" y1="118.458" x2="117.464" y2="118.458" gradientUnits="userSpaceOnUse">
<stop stop-color="#FBD700"/>
<stop offset="0.99" stop-color="#FFB600"/>
</linearGradient>
<linearGradient id="paint3_linear_38_3501" x1="-0.000860391" y1="110.919" x2="199.998" y2="110.919" gradientUnits="userSpaceOnUse">
<stop stop-color="#FBD700"/>
<stop offset="0.99" stop-color="#FFB600"/>
</linearGradient>
<linearGradient id="paint4_linear_38_3501" x1="7.22157" y1="72.5251" x2="150.175" y2="72.5251" gradientUnits="userSpaceOnUse">
<stop stop-color="#FBD700"/>
<stop offset="0.99" stop-color="#FFB600"/>
</linearGradient>
</defs>
</svg>
