<svg width="200" height="173" viewBox="0 0 200 173" fill="none" xmlns="http://www.w3.org/2000/svg">
<g id="Group 12">
<path id="Vector" d="M0 47.7916C7.15616 44.3235 13.6269 41.1756 20.1051 38.0464C45.8389 25.6154 71.5877 13.2104 97.2918 0.723396C99.322 -0.263789 100.868 -0.23026 102.917 0.760651C134.421 16.0564 165.977 31.2554 197.515 46.4804C198.19 46.8082 198.827 47.2105 200 47.8736C194.014 49.6841 188.571 51.502 183.024 52.9362C180.502 53.5881 179.623 54.6237 179.686 57.1569C179.858 64.097 179.772 71.0408 179.716 77.9809C179.705 79.4896 180.018 80.5327 181.43 81.5049C183.859 83.1776 184.306 85.7815 182.681 88.2141C181.828 89.4881 181.579 90.7174 181.594 92.1665C181.642 97.0429 181.437 101.93 181.661 106.799C181.799 109.806 179.858 109.232 178.084 109.325C176.136 109.426 174.743 109.28 174.896 106.702C175.127 102.869 174.985 99.0135 174.959 95.1653C174.94 92.4869 175.16 89.8867 173.536 87.32C172.31 85.3866 172.94 82.9503 175.082 81.5981C176.65 80.6072 176.878 79.4226 176.863 77.8356C176.807 70.9886 176.784 64.1379 176.878 57.291C176.904 55.3315 176.367 54.8509 174.408 55.488C170.187 56.8663 165.937 58.1589 161.649 59.3249C159.823 59.8204 159.209 60.6958 159.242 62.5063C159.347 68.0084 159.28 73.5143 159.28 79.4486C119.762 49.2631 80.5729 47.4526 41.4692 79.2661C40.5081 78.3199 40.9328 77.2284 40.9216 76.2673C40.8695 71.7635 40.7912 67.256 40.9626 62.7596C41.0408 60.6623 40.2213 59.8167 38.2246 59.2355C26.4454 55.8083 14.7072 52.2619 2.9541 48.749C2.22396 48.5292 1.50127 48.2796 0 47.7879V47.7916Z" fill="url(#paint0_linear_38_3494)"/>
<g id="Group">
<path id="Vector_2" d="M153.315 80.421C142.46 71.4692 130.428 64.8085 116.775 61.1652C102.783 57.4326 88.8988 57.8386 75.2123 62.4542C62.9712 66.5705 52.4437 73.6746 42.7358 82.0824C40.7651 83.7774 39.8301 85.5729 39.8524 88.2253C39.9642 101.152 39.8524 114.086 39.9083 127.024C39.953 136.359 44.2035 143.307 52.2165 147.974C55.5207 149.9 58.8101 151.826 62.1144 153.745L65.4932 155.704C69.9187 158.282 74.3667 160.834 78.8146 163.356C80.6213 164.38 82.3834 165.49 84.164 166.548C84.5589 166.779 84.9575 167.01 85.3524 167.241L85.4529 167.297L91.0073 170.523C95.865 173.347 101.866 173.354 106.728 170.538L132.685 155.514L133.028 155.317C137.64 152.653 142.233 149.967 146.8 147.237C154.142 142.856 157.942 136.106 158.02 127.452C158.076 121.033 158.032 114.615 158.032 108.196H158.02C158.02 102.161 157.678 96.0967 158.132 90.0954C158.475 85.6251 156.415 82.9727 153.323 80.4172L153.315 80.421ZM126.62 97.5347L135.244 91.7382C135.628 91.4811 136.146 91.5817 136.403 91.9654C136.66 92.3491 136.559 92.8669 136.176 93.124L127.552 98.9204C127.168 99.1775 126.65 99.0769 126.393 98.6932C126.136 98.3095 126.237 97.7917 126.62 97.5347ZM133.836 108.602L131.564 109.165C131.117 109.277 130.662 109.001 130.551 108.554C130.439 108.107 130.714 107.652 131.161 107.541L133.434 106.978C133.881 106.866 134.335 107.142 134.447 107.589C134.559 108.036 134.283 108.491 133.836 108.602ZM118.101 89.4807L119.479 87.5846C119.751 87.212 120.273 87.1301 120.645 87.3983C121.018 87.6665 121.1 88.1918 120.831 88.5643L119.453 90.4604C119.181 90.833 118.66 90.9149 118.287 90.6467C117.915 90.3747 117.833 89.8532 118.101 89.4807ZM108.762 84.8167L111.306 77.5525C111.459 77.1167 111.936 76.8894 112.371 77.0422C112.807 77.1949 113.035 77.6717 112.882 78.1076L110.337 85.3718C110.185 85.8076 109.708 86.0349 109.272 85.8821C108.836 85.7294 108.609 85.2526 108.762 84.8167ZM96.9341 80.1006C97.396 80.0782 97.7872 80.4321 97.8095 80.894L97.966 84.1387C97.9883 84.6007 97.6344 84.9918 97.1725 85.0141C96.7106 85.0365 96.3194 84.6826 96.2971 84.2207L96.1406 80.976C96.1183 80.5141 96.4722 80.1229 96.9341 80.1006ZM91.8305 89.6297L94.3264 91.1533L100.175 94.7221L106.024 91.1533L108.52 89.6297L108.851 89.4286L113.377 91.6488V116.995L106.027 113.389V101.364L100.179 104.553L94.3302 101.364V113.389L86.9803 116.995V91.6488L91.5064 89.4286L91.838 89.6297H91.8305ZM85.8367 76.5504C86.2725 76.394 86.7493 76.6212 86.9058 77.0571L90.035 85.8151C90.1914 86.2509 89.9642 86.7278 89.5283 86.8842C89.0925 87.0407 88.6157 86.8134 88.4592 86.3776L85.33 77.6196C85.1736 77.1837 85.4008 76.7069 85.8367 76.5504ZM73.7669 90.7212C74.0947 90.3934 74.6237 90.3934 74.9478 90.7212L77.7231 93.4965C78.0509 93.8243 78.0509 94.3533 77.7231 94.6774C77.3953 95.0052 76.8663 95.0052 76.5422 94.6774L73.7669 91.9021C73.4391 91.5743 73.4391 91.0453 73.7669 90.7212ZM61.7605 94.1112C61.9915 93.7126 62.5018 93.5747 62.9004 93.8057L72.8989 99.5761C73.2975 99.807 73.4354 100.317 73.2044 100.716C72.9734 101.115 72.4631 101.252 72.0645 101.021L62.066 95.2511C61.6674 95.0201 61.5295 94.5098 61.7605 94.1112ZM69.4419 114.306C69.4419 114.768 69.0694 115.14 68.6075 115.14H64.3533C63.8913 115.14 63.5188 114.768 63.5188 114.306C63.5188 113.844 63.8913 113.471 64.3533 113.471H68.6075C69.0694 113.471 69.4419 113.844 69.4419 114.306ZM57.741 124.874C57.2865 124.96 56.8507 124.662 56.765 124.207C56.6793 123.753 56.9773 123.317 57.4318 123.231L68.7975 121.078C69.2519 120.992 69.6878 121.29 69.7735 121.745C69.8592 122.199 69.5611 122.635 69.1067 122.721L57.741 124.874ZM73.495 132.887L69.1178 135.681C68.7304 135.931 68.2126 135.815 67.963 135.428C67.7134 135.04 67.8289 134.522 68.2163 134.273L72.5935 131.479C72.9809 131.229 73.4987 131.345 73.7483 131.732C73.9979 132.12 73.8824 132.637 73.495 132.887ZM108.542 151.99C108.542 152.832 107.86 153.514 107.018 153.514H102.526V153.614C102.526 154.3 101.974 154.851 101.289 154.851H98.4168C97.7313 154.851 97.18 154.3 97.18 153.614V153.514H92.6874C91.8454 153.514 91.1637 152.832 91.1637 151.99V151.696C91.1637 150.854 91.8454 150.172 92.6874 150.172H107.015C107.856 150.172 108.538 150.854 108.538 151.696V151.99H108.542ZM108.207 147.833H91.499C90.5751 147.833 89.8264 147.084 89.8264 146.16C89.8264 145.236 90.5751 144.487 91.499 144.487H108.207C109.13 144.487 109.879 145.236 109.879 146.16C109.879 147.084 109.13 147.833 108.207 147.833ZM108.873 142.152H90.8284C89.9046 142.152 89.1558 141.403 89.1558 140.483C89.1558 139.563 89.9046 138.81 90.8284 138.81H108.873C109.797 138.81 110.546 139.559 110.546 140.483C110.546 141.407 109.797 142.152 108.873 142.152ZM126.483 123.425C126.043 124.934 125.477 126.394 124.791 127.787C123.178 131.084 120.917 134.012 118.175 136.404L116.719 135.688L113.377 134.049L106.027 130.443L100.179 127.575L94.3302 130.443L86.9803 134.049L83.6388 135.688L82.1822 136.404C79.4404 134.016 77.1792 131.088 75.5662 127.787C74.8808 126.398 74.3145 124.937 73.8749 123.425C73.1597 120.985 72.7797 118.407 72.7797 115.74C72.7797 107.384 76.5236 99.8964 82.4243 94.8748C82.8192 94.5358 83.2253 94.208 83.6425 93.8951V123.827L86.984 122.188L94.3339 118.582L100.183 115.714L106.031 118.582L113.381 122.188L116.723 123.827V93.8951C117.136 94.208 117.546 94.5321 117.941 94.8748C123.841 99.8964 127.585 107.384 127.585 115.74C127.585 118.407 127.205 120.985 126.49 123.425H126.483ZM131.229 132.138C130.998 132.537 130.487 132.675 130.089 132.444L128.062 131.274C127.663 131.043 127.526 130.533 127.757 130.134C127.988 129.735 128.498 129.598 128.897 129.829L130.923 130.998C131.322 131.229 131.46 131.74 131.229 132.138ZM140.367 121.566L131.597 120.694C131.139 120.65 130.804 120.24 130.849 119.782C130.893 119.323 131.303 118.988 131.761 119.033L140.53 119.905C140.989 119.949 141.324 120.359 141.279 120.817C141.235 121.276 140.825 121.611 140.367 121.566Z" fill="url(#paint1_linear_38_3494)"/>
<path id="Vector_3" d="M112.625 96.2531C112.625 96.2978 112.614 96.3537 112.614 96.3947L112.647 96.35C112.636 96.3164 112.636 96.2829 112.625 96.2494V96.2531Z" fill="url(#paint2_linear_38_3494)"/>
</g>
</g>
<defs>
<linearGradient id="paint0_linear_38_3494" x1="0" y1="54.6721" x2="200.004" y2="54.6721" gradientUnits="userSpaceOnUse">
<stop stop-color="#FBD700"/>
<stop offset="0.99" stop-color="#FFB600"/>
</linearGradient>
<linearGradient id="paint1_linear_38_3494" x1="39.8524" y1="115.647" x2="158.166" y2="115.647" gradientUnits="userSpaceOnUse">
<stop stop-color="#FBD700"/>
<stop offset="0.99" stop-color="#FFB600"/>
</linearGradient>
<linearGradient id="paint2_linear_38_3494" x1="112.614" y1="96.3239" x2="112.647" y2="96.3239" gradientUnits="userSpaceOnUse">
<stop stop-color="#FBD700"/>
<stop offset="0.99" stop-color="#FFB600"/>
</linearGradient>
</defs>
</svg>
