<svg width="197" height="200" viewBox="0 0 197 200" fill="none" xmlns="http://www.w3.org/2000/svg">
<g id="Group 13">
<path id="Vector" d="M101.719 0C49.2365 0 6.54262 42.6939 6.54262 95.1714C6.54262 102.922 7.47295 110.461 9.23249 117.676C3.40783 126.135 0 136.384 0 147.431C0 176.464 23.5363 200 52.5685 200C64.774 200 76.0087 195.839 84.9277 188.856C90.3782 189.832 95.9905 190.343 101.719 190.343C154.192 190.343 196.885 147.649 196.885 95.1714C196.885 42.6939 154.192 0 101.719 0ZM16.3313 128.415L16.9481 127.349C16.9886 127.283 17.0745 127.258 17.1403 127.298L27.2778 133.148C27.3435 133.188 27.3688 133.274 27.3284 133.34L26.7115 134.407C26.6711 134.473 26.5851 134.498 26.5194 134.457L16.3819 128.608C16.3161 128.567 16.2908 128.481 16.3313 128.415ZM27.0958 125.24L27.9654 124.371C28.021 124.315 28.1121 124.315 28.1677 124.371L31.5553 127.758C31.6109 127.814 31.6109 127.905 31.5553 127.96L30.6856 128.83C30.63 128.886 30.539 128.886 30.4834 128.83L27.0958 125.442C27.0402 125.387 27.0402 125.296 27.0958 125.24ZM23.607 145.581V146.815C23.607 146.89 23.5413 146.956 23.4655 146.956H18.374C18.2981 146.956 18.2324 146.89 18.2324 146.815V145.581C18.2324 145.505 18.2981 145.439 18.374 145.439H23.4655C23.5413 145.439 23.607 145.505 23.607 145.581ZM12.3875 155.9C12.3117 155.916 12.2358 155.865 12.2207 155.789L11.9931 154.581C11.978 154.505 12.0285 154.429 12.1044 154.414L23.6222 152.235C23.698 152.22 23.7739 152.27 23.7891 152.346L24.0166 153.554C24.0318 153.63 23.9812 153.706 23.9053 153.721L12.3825 155.9H12.3875ZM27.8036 162.721L22.793 165.922C22.7273 165.962 22.6413 165.947 22.5958 165.876L21.9335 164.84C21.893 164.774 21.9132 164.688 21.979 164.643L26.9896 161.442C27.0553 161.402 27.1413 161.417 27.1868 161.487L27.8491 162.524C27.8896 162.59 27.8694 162.676 27.8036 162.721ZM59.0758 180.382C59.0758 181.146 58.4589 181.763 57.6954 181.763H53.6202V181.854C53.6202 182.475 53.1196 182.976 52.4977 182.976H49.8888C49.2669 182.976 48.7663 182.475 48.7663 181.854V181.763H44.6911C43.9276 181.763 43.3108 181.146 43.3108 180.382V180.114C43.3108 179.351 43.9276 178.734 44.6911 178.734H57.6904C58.4538 178.734 59.0707 179.351 59.0707 180.114V180.382H59.0758ZM60.2892 176.327C60.2892 176.484 60.1628 176.61 60.0061 176.61H42.3855C42.2287 176.61 42.1023 176.484 42.1023 176.327V173.865C42.1023 173.708 42.2287 173.582 42.3855 173.582H60.0061C60.1628 173.582 60.2892 173.708 60.2892 173.865V176.327ZM60.8959 171.175C60.8959 171.332 60.7695 171.458 60.6128 171.458H41.7787C41.622 171.458 41.4956 171.332 41.4956 171.175V168.713C41.4956 168.556 41.622 168.43 41.7787 168.43H60.6128C60.7695 168.43 60.8959 168.556 60.8959 168.713V171.175ZM73.8194 158.423C72.3531 161.417 70.3054 164.071 67.8178 166.24L66.4981 165.593L63.4645 164.107L56.7954 160.835L51.4916 158.236L46.1877 160.835L39.5187 164.107L36.485 165.593L35.1653 166.24C32.6777 164.071 30.625 161.417 29.1637 158.423C28.5418 157.165 28.0261 155.84 27.6317 154.47C26.9845 152.255 26.6357 149.919 26.6357 147.497C26.6357 139.918 30.0283 133.128 35.3828 128.572C35.7417 128.264 36.1108 127.97 36.485 127.682V154.834L39.5187 153.347L46.1877 150.076L51.4916 147.477L56.7954 150.076L63.4645 153.347L66.4981 154.834V127.682C66.8723 127.965 67.2464 128.264 67.6004 128.572C72.9548 133.128 76.3475 139.918 76.3475 147.497C76.3475 149.914 76.0036 152.255 75.3514 154.47C74.952 155.84 74.4413 157.165 73.8194 158.423ZM51.4916 128.436L56.7954 125.2L59.0606 123.819L59.3589 123.637L63.4645 125.65V148.64L56.7954 145.369V134.463L51.4916 137.355L46.1877 134.463V145.369L39.5187 148.64V125.65L43.6242 123.637L43.9226 123.819L46.1877 125.2L51.4916 128.436ZM47.8006 115.35C47.8006 115.275 47.8562 115.204 47.9371 115.204L49.1658 115.143C49.2416 115.143 49.3124 115.199 49.3124 115.28L49.5146 119.456C49.5146 119.532 49.459 119.603 49.3781 119.603L48.1495 119.663C48.0736 119.663 48.0028 119.608 48.0028 119.527L47.8006 115.35ZM59.0758 120.032L61.7909 112.281C61.8162 112.205 61.8971 112.17 61.9729 112.195L63.1358 112.605C63.2117 112.63 63.247 112.711 63.2218 112.787L60.5066 120.538C60.4813 120.614 60.4004 120.649 60.3246 120.624L59.1617 120.214C59.0859 120.189 59.0505 120.108 59.0758 120.032ZM42.4108 121.114L41.2529 121.529C41.1771 121.554 41.0962 121.519 41.0709 121.443L37.8198 112.342C37.7945 112.266 37.8299 112.185 37.9058 112.16L39.0636 111.745C39.1395 111.72 39.2204 111.755 39.2456 111.831L42.4967 120.932C42.522 121.008 42.4866 121.089 42.4108 121.114ZM67.388 124.183L69.3599 121.468C69.4054 121.403 69.4964 121.392 69.5571 121.438L70.5531 122.161C70.6189 122.206 70.629 122.297 70.5835 122.358L68.6116 125.073C68.5661 125.139 68.4751 125.149 68.4144 125.104L67.4184 124.381C67.3526 124.335 67.3425 124.244 67.388 124.183ZM75.8115 132.592C75.7458 132.637 75.6598 132.617 75.6143 132.551L74.9267 131.53C74.8812 131.464 74.9014 131.378 74.9671 131.333L83.8154 125.387C83.8811 125.341 83.967 125.361 84.0125 125.427L84.7002 126.449C84.7457 126.514 84.7255 126.6 84.6597 126.646L75.8115 132.592ZM82.7232 140.707C82.7435 140.783 82.698 140.859 82.6221 140.879L79.366 141.683C79.2901 141.703 79.2143 141.657 79.1941 141.582L78.9008 140.383C78.8806 140.307 78.9261 140.232 79.0019 140.211L82.2581 139.407C82.3339 139.387 82.4098 139.433 82.43 139.509L82.7232 140.707ZM79.9626 161.836L79.3457 162.903C79.3053 162.969 79.2193 162.994 79.1536 162.954L76.2463 161.275C76.1806 161.235 76.1553 161.149 76.1958 161.083L76.8126 160.016C76.8531 159.95 76.939 159.925 77.0048 159.966L79.912 161.644C79.9778 161.685 80.0031 161.771 79.9626 161.836ZM88.7097 152.715C88.6996 152.791 88.6338 152.852 88.5529 152.842L79.371 151.931C79.2952 151.921 79.2345 151.856 79.2446 151.775L79.366 150.551C79.3761 150.475 79.4418 150.415 79.5227 150.425L88.7046 151.335C88.7805 151.345 88.8411 151.411 88.831 151.492L88.7097 152.715ZM101.714 177.935C99.636 177.935 97.5781 177.859 95.5355 177.708C101.578 169.148 105.127 158.702 105.127 147.426C105.127 118.394 81.5957 94.8579 52.5635 94.8579C40.1305 94.8579 28.7036 99.1759 19.7037 106.396C19.2032 102.725 18.9453 98.9736 18.9453 95.1663C18.9453 49.5247 56.0724 12.3976 101.714 12.3976C147.356 12.3976 184.478 49.5247 184.478 95.1663C184.478 140.808 147.351 177.935 101.714 177.935Z" fill="url(#paint0_linear_38_3489)"/>
<path id="Vector_2" d="M166.281 117.085C165.755 116.402 165.199 115.745 164.693 115.052C156.356 103.651 148.023 92.2389 139.691 80.8323C138.512 79.2244 138.497 79.2194 139.908 77.7834C146.759 70.8262 153.822 64.0813 160.608 57.0533C161.862 55.7589 163.176 54.5253 164.486 53.2461C164.284 53.0994 164.238 53.0286 164.187 53.0286C158.959 53.0286 153.726 53.0387 148.498 53.0337C148.018 53.0337 147.694 53.2309 147.386 53.5646C145.515 55.5769 143.644 57.5893 141.748 59.5763C135.585 66.0431 129.24 72.343 123.304 79.0272C123.142 79.2092 122.995 79.4722 122.565 79.3862V78.6531C122.565 70.4116 122.378 62.1701 122.545 53.9286C122.56 53.2258 122.363 53.0135 121.665 53.0286C119.815 53.0691 117.959 53.0286 116.104 53.0438C112.352 53.0691 109.414 55.8499 109.212 59.5763C109.162 60.5319 109.131 61.4926 109.131 62.4532C109.131 75.761 109.147 89.0687 109.162 102.376C109.162 103.504 109.182 104.626 109.192 105.754C109.192 105.941 109.121 106.174 109.359 106.275C109.591 106.371 109.713 106.168 109.844 106.032C109.961 105.916 110.072 105.789 110.188 105.673C114.521 101.254 118.849 96.8248 123.192 92.4158C125.963 89.5996 128.764 89.4984 131.778 92.0568C132.92 93.0276 133.856 94.1905 134.715 95.404C138.477 100.723 142.178 106.088 146.056 111.331C147.431 113.191 148.787 115.072 150.061 117.004C150.435 117.57 150.779 117.889 151.446 117.889C153.595 117.899 155.749 117.939 157.898 117.949C160.547 117.964 163.191 117.964 165.841 117.969C166.104 117.969 166.417 118.025 166.559 117.752C166.716 117.459 166.422 117.277 166.271 117.08L166.281 117.085Z" fill="url(#paint1_linear_38_3489)"/>
<path id="Vector_3" d="M97.1029 83.2339C94.7113 82.2783 92.3097 81.3328 89.8221 80.6452C85.2362 79.3761 80.6401 78.1475 76.0542 76.8733C74.4616 76.4284 72.8992 75.8975 71.4127 75.1492C68.0453 73.4503 66.7864 70.7048 67.9341 67.383C68.6672 65.2543 70.2043 63.8386 72.2571 62.9993C74.8003 61.9578 77.4952 61.9021 80.18 62.0437C84.7912 62.2915 88.735 63.783 90.9041 68.283C90.9597 68.3993 91.0507 68.5054 91.1215 68.6167C92.4462 70.6846 94.3675 71.6554 96.7944 71.6807C98.4832 71.6958 100.172 71.6807 101.861 71.706C104.308 71.7414 104.389 71.7414 104.055 69.3296C102.993 61.7302 99.1051 56.1988 91.9203 53.1955C88.0069 51.5573 83.8811 51.0922 78.1829 51.1023C75.5587 51.1377 71.4936 51.6079 67.5498 52.8567C61.8971 54.6517 57.7157 58.0848 55.7033 63.8032C54.3534 67.6459 54.2067 71.62 55.0916 75.5537C56.1533 80.2862 58.6258 84.0429 63.1915 86.212C65.8712 87.4861 68.6875 88.2749 71.5341 89.0282C76.6711 90.3883 81.889 91.4653 86.8895 93.3411C90.5148 94.7012 93.5939 96.7388 95.8692 99.9242C98.8371 104.075 99.7422 108.686 98.9989 113.677C98.9585 113.965 98.7916 114.294 99.0697 114.511C99.3174 114.703 99.4843 114.415 99.641 114.268C102.548 111.553 104.793 108.429 105.799 104.505C106.613 101.34 106.74 98.1343 106.204 94.949C105.279 89.458 102.417 85.3575 97.1029 83.2339Z" fill="url(#paint2_linear_38_3489)"/>
</g>
<defs>
<linearGradient id="paint0_linear_38_3489" x1="0" y1="100" x2="196.885" y2="100" gradientUnits="userSpaceOnUse">
<stop stop-color="#FBD700"/>
<stop offset="0.99" stop-color="#FFB600"/>
</linearGradient>
<linearGradient id="paint1_linear_38_3489" x1="109.136" y1="85.5092" x2="166.614" y2="85.5092" gradientUnits="userSpaceOnUse">
<stop stop-color="#FBD700"/>
<stop offset="0.99" stop-color="#FFB600"/>
</linearGradient>
<linearGradient id="paint2_linear_38_3489" x1="54.5354" y1="82.8345" x2="106.527" y2="82.8345" gradientUnits="userSpaceOnUse">
<stop stop-color="#FBD700"/>
<stop offset="0.99" stop-color="#FFB600"/>
</linearGradient>
</defs>
</svg>
