<svg width="148" height="200" viewBox="0 0 148 200" fill="none" xmlns="http://www.w3.org/2000/svg">
<g id="Group 14">
<path id="Vector" d="M136.116 32.0952C136.912 32.9001 136.638 33.7179 136.557 34.4586C135.679 42.7563 134.202 50.9427 131.072 58.7138C128.49 65.1233 125.489 71.4173 121.139 76.7821C118.069 80.5713 118.733 84.4033 119.336 88.4409C121.049 99.8642 121.34 111.33 120.659 122.843C120.103 132.289 118.827 141.618 116.677 150.845C113.445 164.717 108.011 177.678 100.84 189.94C100.531 190.467 100.266 191.31 99.521 191.062C98.6604 190.779 99.1657 189.983 99.3027 189.426C103.19 173.773 104.71 157.871 104.295 141.772C103.824 123.503 100.93 105.649 94.9654 88.3338C94.0877 85.7906 93.4497 83.1531 92.4393 80.6698C91.797 79.0899 92.3622 78.225 93.5525 77.5143C97.5001 75.1637 101.439 72.8131 105.109 70.0258C113.029 64.0058 120.467 57.5235 126.281 49.3457C129.92 44.2292 133.144 38.8943 135.495 33.0542C135.628 32.7288 135.88 32.4505 136.111 32.0994L136.116 32.0952Z" fill="url(#paint0_linear_38_3482)"/>
<path id="Vector_2" d="M101.662 196.149C104.368 191.537 107.399 187.187 109.977 182.55C115.783 172.095 120.253 161.099 123.382 149.569C127.411 134.725 129.548 119.632 129 104.223C128.923 102.103 129.668 101.132 131.843 100.691C136.026 99.8428 140.119 98.5754 144.281 97.6078C146.931 96.9912 147.111 97.171 147.051 99.9883C146.871 108.085 145.972 116.121 144.615 124.098C142.761 135.012 139.819 145.613 135.178 155.7C128.653 169.885 119.735 182.259 107.536 192.141C105.708 193.622 104.055 195.361 101.662 196.149Z" fill="url(#paint1_linear_38_3482)"/>
<path id="Vector_3" d="M133.594 27.7022C132.267 27.2441 132.288 26.1951 132.104 25.3088C131.654 23.1423 131.308 20.9587 130.832 18.7965C130.486 17.1995 129.595 16.3218 127.771 16.6044C125.343 16.9811 122.851 16.797 120.437 17.3836C119.824 17.5335 119.011 17.7261 118.763 16.9726C118.471 16.0949 119.486 16.0991 119.953 15.808C121.969 14.5492 123.973 13.2476 126.093 12.1772C128.088 11.1668 128.118 9.82233 127.339 8.04975C126.414 5.94749 125.557 3.81525 124.705 1.67874C124.508 1.19064 124.136 0.53984 124.688 0.141652C125.292 -0.29507 125.664 0.385704 126.054 0.732513C127.887 2.36808 129.728 3.99509 131.526 5.67347C132.772 6.83806 133.868 7.00932 135.23 5.74625C137.083 4.02077 139.092 2.45799 141.053 0.848111C141.438 0.531274 141.797 -0.222276 142.401 0.282952C142.924 0.719674 142.444 1.31481 142.234 1.80291C141.382 3.75532 140.483 5.69059 139.67 7.66012C138.458 10.593 138.8 11.4365 141.592 13.0421C143.24 13.9926 144.85 15.0073 146.473 16.0007C146.991 16.3175 147.847 16.5658 147.501 17.3408C147.171 18.073 146.392 17.602 145.792 17.5378C143.429 17.2851 141.061 17.0368 138.698 16.7842C137.028 16.6044 136.052 17.1439 135.696 18.9764C135.135 21.8921 134.318 24.7565 133.594 27.698V27.7022Z" fill="url(#paint2_linear_38_3482)"/>
<path id="Vector_4" d="M104.809 55.3828C104.805 60.5935 101.157 64.3741 96.1559 64.357C91.7116 64.3398 87.156 59.6301 87.2716 55.173C87.3829 50.8828 91.8272 46.7511 96.4256 46.871C100.699 46.9823 105.224 49.7011 104.805 55.3828H104.809Z" fill="url(#paint3_linear_38_3482)"/>
<path id="Vector_5" d="M98.729 164.632C98.9731 157.563 99.0416 150.515 98.6263 144.174C98.8104 140.103 98.0311 136.831 97.74 133.517C96.4812 119.2 93.0217 105.396 88.1364 91.9261C84.1203 80.8454 78.7169 70.4539 72.3887 60.5292C70.0467 56.8556 70.0253 56.7272 66.0134 58.9964C56.838 64.1857 47.7096 69.452 38.5984 74.7526C32.0219 78.5804 25.5139 82.5323 18.9587 86.3986C13.0844 89.8624 7.18867 93.2919 1.29292 96.7215C0.333842 97.2781 -0.436851 97.7533 0.282456 99.1149C1.5755 101.568 2.67587 104.12 3.90896 106.608C9.91603 118.707 12.7419 131.621 13.8508 144.996C14.2918 150.336 13.7309 155.602 13.2343 160.89C12.6819 166.781 11.2476 172.467 9.0854 177.943C7.69389 181.471 8.97837 184.246 12.7847 184.871C14.3518 185.128 15.8803 185.509 17.4345 185.8C28.9563 187.979 40.4866 190.09 52.0169 192.218C63.3888 194.316 74.7607 196.418 86.1369 198.499C89.0184 199.026 91.9128 199.505 94.8114 199.951C95.7234 200.092 96.8837 200.006 96.143 198.658C94.3276 195.365 95.0811 192.021 95.7234 188.69C97.2562 180.739 98.4422 172.771 98.7248 164.64L98.729 164.632ZM76.2336 119.097L83.6578 114.105C83.7007 114.075 83.7563 114.088 83.7863 114.13L84.39 115.03C84.42 115.072 84.4071 115.128 84.3643 115.158L76.94 120.15C76.8972 120.18 76.8416 120.167 76.8116 120.125L76.2079 119.226C76.1779 119.183 76.1908 119.127 76.2336 119.097ZM82.7373 126.932C82.7502 126.979 82.7202 127.031 82.6688 127.044L79.8986 127.729C79.8515 127.742 79.8001 127.712 79.7873 127.66L79.5261 126.611C79.5133 126.564 79.5432 126.513 79.5946 126.5L82.3648 125.815C82.4119 125.802 82.4633 125.832 82.4761 125.883L82.7373 126.932ZM69.9182 113.137L71.5966 110.829C71.6266 110.786 71.6822 110.778 71.7251 110.808L72.5985 111.442C72.6413 111.472 72.6499 111.527 72.6199 111.57L70.9415 113.878C70.9116 113.921 70.8559 113.929 70.8131 113.899L69.9396 113.266C69.8968 113.236 69.8883 113.18 69.9182 113.137ZM65.2727 103.161C65.2898 103.114 65.3412 103.088 65.3883 103.105L66.4073 103.465C66.4544 103.482 66.4801 103.533 66.463 103.581L64.1809 110.097C64.1638 110.144 64.1124 110.17 64.0653 110.153L63.0463 109.793C62.9992 109.776 62.9735 109.725 62.9906 109.678L65.2727 103.161ZM53.6739 105.627L54.7528 105.576C54.8042 105.576 54.847 105.614 54.847 105.661L55.0183 109.198C55.0183 109.249 54.9798 109.292 54.9327 109.292L53.8537 109.344C53.8023 109.344 53.7595 109.305 53.7595 109.258L53.5882 105.721C53.5882 105.67 53.6268 105.627 53.6739 105.627ZM50.3514 112.816L52.2395 113.968L56.6667 116.669L61.0939 113.968L62.9821 112.816L63.2347 112.666L66.66 114.344V133.53L61.0939 130.799V121.696L56.6667 124.111L52.2395 121.696V130.799L46.6735 133.53V114.344L50.0988 112.666L50.3471 112.816H50.3514ZM45.3034 103.097L46.3224 102.733C46.3695 102.716 46.4209 102.741 46.438 102.788L49.1696 110.435C49.1868 110.483 49.1611 110.534 49.114 110.551L48.095 110.915C48.0479 110.932 47.9965 110.906 47.9794 110.859L45.2477 103.212C45.2306 103.165 45.2563 103.114 45.3034 103.097ZM36.2949 114.023L37.0613 113.257C37.0956 113.223 37.1555 113.223 37.1898 113.257L40.0541 116.121C40.0884 116.156 40.0884 116.216 40.0541 116.25L39.2877 117.016C39.2535 117.05 39.1935 117.05 39.1593 117.016L36.2949 114.152C36.2607 114.118 36.2607 114.058 36.2949 114.023ZM27.3164 116.674L27.8559 115.736C27.8816 115.693 27.9372 115.676 27.9801 115.702L36.4833 120.613C36.5261 120.638 36.5432 120.694 36.5175 120.737L35.9781 121.675C35.9524 121.717 35.8967 121.735 35.8539 121.709L27.3507 116.798C27.3078 116.772 27.2907 116.716 27.3164 116.674ZM33.4006 130.953V132.036C33.4006 132.087 33.3577 132.126 33.3106 132.126H29.0119C28.9605 132.126 28.922 132.083 28.922 132.036V130.953C28.922 130.901 28.9648 130.863 29.0119 130.863H33.3106C33.362 130.863 33.4006 130.906 33.4006 130.953ZM23.904 139.525L23.7028 138.463C23.6942 138.411 23.7242 138.364 23.7755 138.356L33.4434 136.523C33.4948 136.515 33.5418 136.545 33.5504 136.596L33.7516 137.658C33.7602 137.709 33.7302 137.756 33.6789 137.765L24.011 139.597C23.9597 139.606 23.9126 139.576 23.904 139.525ZM36.9243 145.27L32.6984 147.968C32.6555 147.993 32.5999 147.981 32.5699 147.938L31.9876 147.026C31.9619 146.983 31.9748 146.927 32.0176 146.897L36.2435 144.2C36.2863 144.174 36.342 144.187 36.372 144.23L36.9543 145.142C36.98 145.185 36.9671 145.24 36.9243 145.27ZM62.9992 160.02C62.9992 160.658 62.4811 161.172 61.8474 161.172H58.4478V161.249C58.4478 161.767 58.0283 162.187 57.5102 162.187H55.3351C54.8171 162.187 54.3975 161.772 54.3975 161.249V161.172H50.9979C50.3599 161.172 49.8461 160.654 49.8461 160.02V159.798C49.8461 159.16 50.3642 158.646 50.9979 158.646H61.8432C62.4811 158.646 62.9949 159.164 62.9949 159.798V160.02H62.9992ZM64.0096 156.689C64.0096 156.792 63.9283 156.874 63.8255 156.874H49.0155C48.9128 156.874 48.8314 156.792 48.8314 156.689V154.527C48.8314 154.424 48.9128 154.343 49.0155 154.343H63.8255C63.9283 154.343 64.0096 154.424 64.0096 154.527V156.689ZM64.5149 152.391C64.5149 152.493 64.4335 152.575 64.3308 152.575H48.506C48.4032 152.575 48.3219 152.493 48.3219 152.391V150.229C48.3219 150.126 48.4032 150.044 48.506 150.044H64.3308C64.4335 150.044 64.5149 150.126 64.5149 150.229V152.391ZM75.3002 141.7C74.0799 144.196 72.3673 146.414 70.2907 148.22L69.1861 147.681L66.6557 146.439L61.0896 143.708L56.6624 141.537L52.2353 143.708L46.6692 146.439L44.1388 147.681L43.0341 148.22C40.9576 146.414 39.2492 144.196 38.0247 141.7C37.5066 140.646 37.0742 139.542 36.7445 138.398C36.205 136.553 35.9138 134.601 35.9138 132.58C35.9138 126.252 38.7482 120.587 43.2139 116.785C43.5137 116.528 43.8219 116.28 44.1345 116.044V138.702L46.6649 137.461L52.231 134.729L56.6581 132.558L61.0853 134.729L66.6514 137.461L69.1818 138.702V116.044C69.4943 116.284 69.8026 116.528 70.1023 116.785C74.568 120.587 77.4024 126.252 77.4024 132.58C77.4024 134.596 77.1156 136.553 76.5718 138.398C76.2421 139.542 75.8097 140.646 75.2916 141.7H75.3002ZM80.4424 144.525L79.9029 145.463C79.8772 145.506 79.8215 145.523 79.7787 145.497L77.3083 144.072C77.2654 144.046 77.2483 143.99 77.274 143.947L77.8135 143.01C77.8392 142.967 77.8948 142.95 77.9376 142.975L80.4081 144.401C80.4509 144.427 80.4681 144.483 80.4424 144.525ZM87.7253 136.96C87.7211 137.011 87.674 137.045 87.6269 137.041L79.9114 136.275C79.8601 136.271 79.8258 136.223 79.8301 136.176L79.9371 135.102C79.9414 135.05 79.9885 135.016 80.0356 135.02L87.751 135.787C87.8024 135.791 87.8367 135.838 87.8324 135.885L87.7253 136.96Z" fill="url(#paint4_linear_38_3482)"/>
</g>
<defs>
<linearGradient id="paint0_linear_38_3482" x1="92.1695" y1="111.604" x2="136.668" y2="111.604" gradientUnits="userSpaceOnUse">
<stop stop-color="#FBD700"/>
<stop offset="0.99" stop-color="#FFB600"/>
</linearGradient>
<linearGradient id="paint1_linear_38_3482" x1="101.662" y1="146.73" x2="147.055" y2="146.73" gradientUnits="userSpaceOnUse">
<stop stop-color="#FBD700"/>
<stop offset="0.99" stop-color="#FFB600"/>
</linearGradient>
<linearGradient id="paint2_linear_38_3482" x1="118.715" y1="13.8513" x2="147.578" y2="13.8513" gradientUnits="userSpaceOnUse">
<stop stop-color="#FBD700"/>
<stop offset="0.99" stop-color="#FFB600"/>
</linearGradient>
<linearGradient id="paint3_linear_38_3482" x1="87.2716" y1="55.6097" x2="104.835" y2="55.6097" gradientUnits="userSpaceOnUse">
<stop stop-color="#FBD700"/>
<stop offset="0.99" stop-color="#FFB600"/>
</linearGradient>
<linearGradient id="paint4_linear_38_3482" x1="0.0084357" y1="128.739" x2="98.926" y2="128.739" gradientUnits="userSpaceOnUse">
<stop stop-color="#FBD700"/>
<stop offset="0.99" stop-color="#FFB600"/>
</linearGradient>
</defs>
</svg>
